<?xml version="1.0" encoding="UTF-8" standalone="no"?>
<!DOCTYPE svg PUBLIC "-//W3C//DTD SVG 1.1//EN" "http://www.w3.org/Graphics/SVG/1.1/DTD/svg11.dtd">
<svg width="100%" height="100%" viewBox="0 0 3300 2200" version="1.1" xmlns="http://www.w3.org/2000/svg" xmlns:xlink="http://www.w3.org/1999/xlink" xml:space="preserve" xmlns:serif="http://www.serif.com/" style="fill-rule:evenodd;clip-rule:evenodd;">
    <g id="Notes">
        <rect id="artboard" x="0" y="0" width="3300" height="2200" style="fill:white;"/>
        <path d="M263,292L3036,292" style="fill:none;fill-rule:nonzero;stroke:black;stroke-width:0.5px;"/>
        <g transform="matrix(1,0,0,1,263,322)">
            <text x="0px" y="0px" style="font-family:'LucidaGrande-Bold', 'Lucida Grande', sans-serif;font-weight:600;font-size:13px;">Weight/Scale Variations</text>
        </g>
        <g transform="matrix(1,0,0,1,559.711,322)">
            <text x="-29.339px" y="0px" style="font-family:'LucidaGrande', 'Lucida Grande', sans-serif;font-weight:500;font-size:13px;">Ultralight</text>
        </g>
        <g transform="matrix(1,0,0,1,856.422,322)">
            <text x="-14.057px" y="0px" style="font-family:'LucidaGrande', 'Lucida Grande', sans-serif;font-weight:500;font-size:13px;">Thin</text>
        </g>
        <g transform="matrix(1,0,0,1,1153.13,322)">
            <text x="-15.863px" y="0px" style="font-family:'LucidaGrande', 'Lucida Grande', sans-serif;font-weight:500;font-size:13px;">Light</text>
        </g>
        <g transform="matrix(1,0,0,1,1449.84,322)">
            <text x="-23.947px" y="0px" style="font-family:'LucidaGrande', 'Lucida Grande', sans-serif;font-weight:500;font-size:13px;">Regular</text>
        </g>
        <g transform="matrix(1,0,0,1,1746.56,322)">
            <text x="-25.292px" y="0px" style="font-family:'LucidaGrande', 'Lucida Grande', sans-serif;font-weight:500;font-size:13px;">Medium</text>
        </g>
        <g transform="matrix(1,0,0,1,2043.27,322)">
            <text x="-29.123px" y="0px" style="font-family:'LucidaGrande', 'Lucida Grande', sans-serif;font-weight:500;font-size:13px;">Semibold</text>
        </g>
        <g transform="matrix(1,0,0,1,2339.98,322)">
            <text x="-13.701px" y="0px" style="font-family:'LucidaGrande', 'Lucida Grande', sans-serif;font-weight:500;font-size:13px;">Bold</text>
        </g>
        <g transform="matrix(1,0,0,1,2636.69,322)">
            <text x="-18.748px" y="0px" style="font-family:'LucidaGrande', 'Lucida Grande', sans-serif;font-weight:500;font-size:13px;">Heavy</text>
        </g>
        <g transform="matrix(1,0,0,1,2933.4,322)">
            <text x="-16.336px" y="0px" style="font-family:'LucidaGrande', 'Lucida Grande', sans-serif;font-weight:500;font-size:13px;">Black</text>
        </g>
        <path d="M263,1903L3036,1903" style="fill:none;fill-rule:nonzero;stroke:black;stroke-width:0.5px;"/>
        <g transform="matrix(1,0,0,1,263,1933)">
            <path d="M9.248,0.83C10.329,0.83 11.344,0.625 12.295,0.215C13.245,-0.195 14.084,-0.765 14.81,-1.494C15.535,-2.223 16.105,-3.063 16.519,-4.014C16.932,-4.964 17.139,-5.977 17.139,-7.051C17.139,-8.125 16.932,-9.137 16.519,-10.088C16.105,-11.038 15.534,-11.878 14.805,-12.607C14.076,-13.337 13.236,-13.906 12.285,-14.316C11.335,-14.727 10.319,-14.932 9.238,-14.932C8.164,-14.932 7.152,-14.727 6.201,-14.316C5.251,-13.906 4.414,-13.337 3.691,-12.607C2.969,-11.878 2.401,-11.038 1.987,-10.088C1.574,-9.137 1.367,-8.125 1.367,-7.051C1.367,-5.977 1.574,-4.964 1.987,-4.014C2.401,-3.063 2.97,-2.223 3.696,-1.494C4.422,-0.765 5.26,-0.195 6.211,0.215C7.161,0.625 8.174,0.83 9.248,0.83ZM9.248,-0.654C8.363,-0.654 7.534,-0.819 6.763,-1.147C5.991,-1.476 5.314,-1.934 4.731,-2.52C4.149,-3.105 3.693,-3.786 3.364,-4.561C3.035,-5.335 2.871,-6.165 2.871,-7.051C2.871,-7.936 3.034,-8.766 3.359,-9.541C3.685,-10.316 4.139,-10.996 4.722,-11.582C5.304,-12.168 5.981,-12.625 6.753,-12.954C7.524,-13.283 8.353,-13.447 9.238,-13.447C10.13,-13.447 10.962,-13.283 11.733,-12.954C12.505,-12.625 13.184,-12.168 13.77,-11.582C14.355,-10.996 14.814,-10.316 15.147,-9.541C15.479,-8.766 15.645,-7.936 15.645,-7.051C15.645,-6.165 15.48,-5.335 15.151,-4.561C14.823,-3.786 14.367,-3.105 13.784,-2.52C13.202,-1.934 12.523,-1.476 11.748,-1.147C10.973,-0.819 10.14,-0.654 9.248,-0.654ZM5.654,-7.051C5.654,-6.836 5.723,-6.662 5.859,-6.528C5.996,-6.395 6.178,-6.328 6.406,-6.328L8.516,-6.328L8.516,-4.209C8.516,-3.994 8.581,-3.817 8.711,-3.677C8.841,-3.537 9.017,-3.467 9.238,-3.467C9.453,-3.467 9.631,-3.537 9.771,-3.677C9.91,-3.817 9.98,-3.994 9.98,-4.209L9.98,-6.328L12.09,-6.328C12.311,-6.328 12.49,-6.395 12.627,-6.528C12.764,-6.662 12.832,-6.836 12.832,-7.051C12.832,-7.272 12.764,-7.451 12.627,-7.588C12.49,-7.725 12.311,-7.793 12.09,-7.793L9.98,-7.793L9.98,-9.902C9.98,-10.124 9.91,-10.304 9.771,-10.444C9.631,-10.584 9.453,-10.654 9.238,-10.654C9.017,-10.654 8.841,-10.584 8.711,-10.444C8.581,-10.304 8.516,-10.124 8.516,-9.902L8.516,-7.793L6.406,-7.793C6.178,-7.793 5.996,-7.725 5.859,-7.588C5.723,-7.451 5.654,-7.272 5.654,-7.051Z" style="fill-rule:nonzero;"/>
        </g>
        <g transform="matrix(1,0,0,1,281.867,1933)">
            <path d="M11.709,2.91C13.07,2.91 14.351,2.65 15.552,2.129C16.753,1.608 17.813,0.889 18.731,-0.029C19.648,-0.947 20.368,-2.007 20.889,-3.208C21.409,-4.409 21.67,-5.69 21.67,-7.051C21.67,-8.411 21.409,-9.692 20.889,-10.894C20.368,-12.095 19.648,-13.154 18.731,-14.072C17.813,-14.99 16.751,-15.71 15.547,-16.23C14.342,-16.751 13.06,-17.012 11.699,-17.012C10.339,-17.012 9.058,-16.751 7.856,-16.23C6.655,-15.71 5.597,-14.99 4.683,-14.072C3.768,-13.154 3.05,-12.095 2.529,-10.894C2.008,-9.692 1.748,-8.411 1.748,-7.051C1.748,-5.69 2.008,-4.409 2.529,-3.208C3.05,-2.007 3.77,-0.947 4.688,-0.029C5.605,0.889 6.665,1.608 7.866,2.129C9.067,2.65 10.348,2.91 11.709,2.91ZM11.709,1.25C10.557,1.25 9.479,1.035 8.477,0.605C7.474,0.176 6.593,-0.418 5.835,-1.177C5.076,-1.935 4.484,-2.816 4.058,-3.818C3.631,-4.821 3.418,-5.898 3.418,-7.051C3.418,-8.203 3.631,-9.281 4.058,-10.283C4.484,-11.286 5.075,-12.168 5.83,-12.93C6.585,-13.691 7.464,-14.286 8.467,-14.712C9.469,-15.138 10.547,-15.352 11.699,-15.352C12.852,-15.352 13.929,-15.138 14.932,-14.712C15.934,-14.286 16.816,-13.691 17.578,-12.93C18.34,-12.168 18.936,-11.286 19.365,-10.283C19.795,-9.281 20.01,-8.203 20.01,-7.051C20.01,-5.898 19.797,-4.821 19.37,-3.818C18.944,-2.816 18.351,-1.935 17.593,-1.177C16.834,-0.418 15.952,0.176 14.946,0.605C13.94,1.035 12.861,1.25 11.709,1.25ZM7.178,-7.051C7.178,-6.816 7.256,-6.624 7.412,-6.475C7.568,-6.325 7.77,-6.25 8.018,-6.25L10.889,-6.25L10.889,-3.369C10.889,-3.122 10.964,-2.922 11.113,-2.769C11.263,-2.616 11.455,-2.539 11.69,-2.539C11.937,-2.539 12.137,-2.616 12.29,-2.769C12.443,-2.922 12.52,-3.122 12.52,-3.369L12.52,-6.25L15.4,-6.25C15.648,-6.25 15.848,-6.325 16.001,-6.475C16.154,-6.624 16.23,-6.816 16.23,-7.051C16.23,-7.298 16.154,-7.498 16.001,-7.651C15.848,-7.804 15.648,-7.881 15.4,-7.881L12.52,-7.881L12.52,-10.752C12.52,-11.006 12.443,-11.209 12.29,-11.362C12.137,-11.515 11.937,-11.592 11.69,-11.592C11.455,-11.592 11.263,-11.514 11.113,-11.357C10.964,-11.201 10.889,-10.999 10.889,-10.752L10.889,-7.881L8.018,-7.881C7.764,-7.881 7.56,-7.804 7.407,-7.651C7.254,-7.498 7.178,-7.298 7.178,-7.051Z" style="fill-rule:nonzero;"/>
        </g>
        <g transform="matrix(1,0,0,1,305.646,1933)">
            <path d="M14.971,5.664C16.364,5.664 17.694,5.448 18.96,5.015C20.226,4.582 21.39,3.975 22.451,3.193C23.512,2.412 24.435,1.491 25.22,0.43C26.004,-0.632 26.613,-1.797 27.046,-3.066C27.479,-4.336 27.695,-5.664 27.695,-7.051C27.695,-8.444 27.479,-9.774 27.046,-11.04C26.613,-12.306 26.004,-13.47 25.22,-14.531C24.435,-15.592 23.512,-16.515 22.451,-17.3C21.39,-18.084 20.225,-18.693 18.955,-19.126C17.686,-19.559 16.354,-19.775 14.961,-19.775C13.568,-19.775 12.238,-19.559 10.972,-19.126C9.705,-18.693 8.543,-18.084 7.485,-17.3C6.427,-16.515 5.506,-15.592 4.722,-14.531C3.937,-13.47 3.33,-12.306 2.9,-11.04C2.471,-9.774 2.256,-8.444 2.256,-7.051C2.256,-5.664 2.472,-4.336 2.905,-3.066C3.338,-1.797 3.945,-0.632 4.727,0.43C5.508,1.491 6.429,2.412 7.49,3.193C8.551,3.975 9.715,4.582 10.981,5.015C12.248,5.448 13.578,5.664 14.971,5.664ZM14.971,3.848C13.766,3.848 12.619,3.664 11.528,3.296C10.438,2.928 9.44,2.412 8.535,1.748C7.63,1.084 6.844,0.298 6.177,-0.61C5.509,-1.519 4.993,-2.518 4.629,-3.608C4.264,-4.699 4.082,-5.846 4.082,-7.051C4.082,-8.262 4.264,-9.412 4.629,-10.503C4.993,-11.593 5.508,-12.593 6.172,-13.501C6.836,-14.409 7.62,-15.195 8.525,-15.859C9.43,-16.523 10.428,-17.038 11.519,-17.402C12.609,-17.767 13.756,-17.949 14.961,-17.949C16.172,-17.949 17.323,-17.767 18.413,-17.402C19.504,-17.038 20.503,-16.523 21.411,-15.859C22.319,-15.195 23.105,-14.409 23.77,-13.501C24.434,-12.593 24.95,-11.593 25.317,-10.503C25.685,-9.412 25.869,-8.262 25.869,-7.051C25.876,-5.846 25.697,-4.699 25.332,-3.608C24.967,-2.518 24.452,-1.519 23.784,-0.61C23.117,0.298 22.329,1.084 21.421,1.748C20.513,2.412 19.513,2.928 18.423,3.296C17.332,3.664 16.182,3.848 14.971,3.848ZM9.199,-7.051C9.199,-6.797 9.285,-6.587 9.458,-6.421C9.631,-6.255 9.85,-6.172 10.117,-6.172L14.063,-6.172L14.063,-2.217C14.063,-1.95 14.146,-1.73 14.312,-1.558C14.477,-1.385 14.691,-1.299 14.951,-1.299C15.218,-1.299 15.438,-1.383 15.61,-1.553C15.783,-1.722 15.869,-1.943 15.869,-2.217L15.869,-6.172L19.824,-6.172C20.091,-6.172 20.309,-6.255 20.479,-6.421C20.648,-6.587 20.732,-6.797 20.732,-7.051C20.732,-7.324 20.648,-7.546 20.479,-7.715C20.309,-7.884 20.091,-7.969 19.824,-7.969L15.869,-7.969L15.869,-11.914C15.869,-12.188 15.783,-12.41 15.61,-12.583C15.438,-12.756 15.218,-12.842 14.951,-12.842C14.691,-12.842 14.477,-12.756 14.312,-12.583C14.146,-12.41 14.063,-12.188 14.063,-11.914L14.063,-7.969L10.117,-7.969C9.844,-7.969 9.622,-7.884 9.453,-7.715C9.284,-7.546 9.199,-7.324 9.199,-7.051Z" style="fill-rule:nonzero;"/>
        </g>
        <g transform="matrix(1,0,0,1,263,1953)">
            <text x="0px" y="0px" style="font-family:'LucidaGrande-Bold', 'Lucida Grande', sans-serif;font-weight:600;font-size:13px;">Design Variations</text>
        </g>
        <g transform="matrix(1,0,0,1,263,1971)">
            <text x="0px" y="0px" style="font-family:'LucidaGrande', 'Lucida Grande', sans-serif;font-weight:500;font-size:13px;">Symbols are supported in up to nine weights and three scales.</text>
        </g>
        <g transform="matrix(1,0,0,1,263,1989)">
            <text x="0px" y="0px" style="font-family:'LucidaGrande', 'Lucida Grande', sans-serif;font-weight:500;font-size:13px;">For optimal layout with text and other symbols, vertically align</text>
        </g>
        <g transform="matrix(1,0,0,1,263,2007)">
            <text x="0px" y="0px" style="font-family:'LucidaGrande', 'Lucida Grande', sans-serif;font-weight:500;font-size:13px;">symbols with the adjacent text.</text>
        </g>
        <path d="M776,1919L776,1933" style="fill:none;fill-rule:nonzero;stroke:rgb(0,174,239);stroke-width:0.5px;"/>
        <g transform="matrix(1,0,0,1,776,1933)">
            <path d="M3.311,0.156C3.571,0.156 3.773,0.101 3.916,-0.01C4.059,-0.12 4.176,-0.313 4.268,-0.586L5.527,-4.033L11.289,-4.033L12.549,-0.586C12.64,-0.313 12.757,-0.12 12.9,-0.01C13.044,0.101 13.242,0.156 13.496,0.156C13.756,0.156 13.963,0.085 14.116,-0.059C14.269,-0.202 14.346,-0.397 14.346,-0.645C14.346,-0.794 14.31,-0.97 14.238,-1.172L9.658,-13.369C9.541,-13.669 9.382,-13.893 9.18,-14.043C8.978,-14.193 8.721,-14.268 8.408,-14.268C7.803,-14.268 7.393,-13.971 7.178,-13.379L2.598,-1.162C2.526,-0.96 2.49,-0.785 2.49,-0.635C2.49,-0.387 2.563,-0.194 2.71,-0.054C2.856,0.086 3.057,0.156 3.311,0.156ZM6.006,-5.518L8.379,-12.09L8.428,-12.09L10.801,-5.518L6.006,-5.518Z" style="fill-rule:nonzero;"/>
        </g>
        <path d="M793.197,1919L793.197,1933" style="fill:none;fill-rule:nonzero;stroke:rgb(0,174,239);stroke-width:0.5px;"/>
        <g transform="matrix(1,0,0,1,776,1953)">
            <text x="0px" y="0px" style="font-family:'LucidaGrande-Bold', 'Lucida Grande', sans-serif;font-weight:600;font-size:13px;">Margins</text>
        </g>
        <g transform="matrix(1,0,0,1,776,1971)">
            <text x="0px" y="0px" style="font-family:'LucidaGrande', 'Lucida Grande', sans-serif;font-weight:500;font-size:13px;">Leading and trailing margins on the left and right side of each symbol</text>
        </g>
        <g transform="matrix(1,0,0,1,776,1989)">
            <text x="0px" y="0px" style="font-family:'LucidaGrande', 'Lucida Grande', sans-serif;font-weight:500;font-size:13px;">can be adjusted by modifying the x-location of the margin guidelines.</text>
        </g>
        <g transform="matrix(1,0,0,1,776,2007)">
            <text x="0px" y="0px" style="font-family:'LucidaGrande', 'Lucida Grande', sans-serif;font-weight:500;font-size:13px;">Modiﬁcations are automatically applied proportionally to all</text>
        </g>
        <g transform="matrix(1,0,0,1,776,2025)">
            <text x="0px" y="0px" style="font-family:'LucidaGrande', 'Lucida Grande', sans-serif;font-weight:500;font-size:13px;">scales and weights.</text>
        </g>
        <g transform="matrix(1,0,0,1,1289,1933)">
            <path d="M2.842,1.865L4.541,3.574C4.971,4.01 5.425,4.212 5.903,4.18C6.382,4.147 6.852,3.874 7.314,3.359L18.008,-8.428L17.041,-9.404L6.426,2.275C6.25,2.477 6.073,2.591 5.894,2.617C5.715,2.643 5.508,2.539 5.273,2.305L4.102,1.143C3.867,0.908 3.765,0.701 3.794,0.522C3.823,0.343 3.939,0.163 4.141,-0.02L15.615,-10.82L14.639,-11.787L3.047,-0.898C2.552,-0.443 2.287,0.023 2.251,0.498C2.215,0.973 2.412,1.429 2.842,1.865ZM9.258,-16.328C9.049,-16.126 8.932,-15.895 8.906,-15.635C8.88,-15.374 8.926,-15.146 9.043,-14.951C9.16,-14.769 9.331,-14.632 9.556,-14.541C9.78,-14.45 10.055,-14.443 10.381,-14.522C11.11,-14.691 11.849,-14.761 12.598,-14.731C13.346,-14.702 14.079,-14.453 14.795,-13.984L14.209,-12.529C14.04,-12.113 13.993,-11.75 14.067,-11.44C14.142,-11.131 14.313,-10.84 14.58,-10.566L16.875,-8.252C17.116,-8.005 17.35,-7.861 17.578,-7.822C17.806,-7.783 18.06,-7.79 18.34,-7.842L19.404,-8.037L20.068,-7.363L20.029,-6.807C20.01,-6.559 20.041,-6.331 20.122,-6.123C20.203,-5.915 20.365,-5.69 20.606,-5.449L21.367,-4.707C21.608,-4.466 21.87,-4.341 22.153,-4.331C22.437,-4.321 22.695,-4.434 22.93,-4.668L25.84,-7.588C26.074,-7.822 26.188,-8.078 26.182,-8.354C26.175,-8.631 26.051,-8.89 25.811,-9.131L25.039,-9.893C24.805,-10.133 24.585,-10.298 24.38,-10.386C24.175,-10.474 23.952,-10.508 23.711,-10.488L23.135,-10.44L22.49,-11.074L22.734,-12.197C22.799,-12.477 22.786,-12.739 22.695,-12.983C22.604,-13.228 22.412,-13.496 22.119,-13.789L19.922,-15.977C19.089,-16.803 18.202,-17.424 17.261,-17.837C16.32,-18.25 15.373,-18.465 14.419,-18.481C13.465,-18.498 12.547,-18.324 11.665,-17.959C10.783,-17.594 9.98,-17.051 9.258,-16.328ZM10.752,-15.957C11.357,-16.4 12.007,-16.716 12.7,-16.904C13.394,-17.093 14.095,-17.153 14.805,-17.085C15.514,-17.017 16.203,-16.826 16.87,-16.514C17.537,-16.201 18.148,-15.765 18.701,-15.205L21.133,-12.793C21.25,-12.676 21.323,-12.562 21.353,-12.451C21.382,-12.341 21.377,-12.201 21.338,-12.031L21.016,-10.547L22.52,-9.063L23.506,-9.121C23.63,-9.128 23.724,-9.119 23.789,-9.097C23.854,-9.074 23.936,-9.014 24.033,-8.916L24.609,-8.34L22.168,-5.898L21.592,-6.475C21.494,-6.572 21.432,-6.654 21.406,-6.719C21.38,-6.784 21.37,-6.882 21.377,-7.012L21.445,-7.988L19.951,-9.473L18.428,-9.219C18.265,-9.186 18.136,-9.181 18.042,-9.204C17.948,-9.227 17.839,-9.297 17.715,-9.414L15.713,-11.416C15.583,-11.533 15.509,-11.646 15.493,-11.753C15.477,-11.86 15.508,-12.005 15.586,-12.188L16.465,-14.277C15.684,-15.007 14.805,-15.511 13.828,-15.791C12.852,-16.071 11.855,-16.061 10.84,-15.762C10.762,-15.742 10.711,-15.757 10.689,-15.806C10.666,-15.855 10.687,-15.905 10.752,-15.957Z" style="fill-rule:nonzero;"/>
        </g>
        <g transform="matrix(1,0,0,1,1289,1953)">
            <text x="0px" y="0px" style="font-family:'LucidaGrande-Bold', 'Lucida Grande', sans-serif;font-weight:600;font-size:13px;">Exporting</text>
        </g>
        <g transform="matrix(1,0,0,1,1289,1971)">
            <text x="0px" y="0px" style="font-family:'LucidaGrande', 'Lucida Grande', sans-serif;font-weight:500;font-size:13px;">Symbols should be outlined when exporting to ensure the</text>
        </g>
        <g transform="matrix(1,0,0,1,1289,1989)">
            <text x="0px" y="0px" style="font-family:'LucidaGrande', 'Lucida Grande', sans-serif;font-weight:500;font-size:13px;">design is preserved when submitting to Xcode.</text>
        </g>
        <g id="template-version" transform="matrix(1,0,0,1,3036,1933)">
            <text x="-94.333px" y="0px" style="font-family:'LucidaGrande', 'Lucida Grande', sans-serif;font-weight:500;font-size:13px;">Template v.3.0</text>
        </g>
        <g transform="matrix(1,0,0,1,3036,1951)">
            <text x="-184.336px" y="0px" style="font-family:'LucidaGrande', 'Lucida Grande', sans-serif;font-weight:500;font-size:13px;">Requires Xcode 13 or greater</text>
        </g>
        <g id="descriptive-name" transform="matrix(1,0,0,1,3036,1969)">
            <text x="-243.496px" y="0px" style="font-family:'LucidaGrande', 'Lucida Grande', sans-serif;font-weight:500;font-size:13px;">Generated from custom.aspectratio.ﬁll</text>
        </g>
        <g transform="matrix(1,0,0,1,3036,1987)">
            <text x="-137.693px" y="0px" style="font-family:'LucidaGrande', 'Lucida Grande', sans-serif;font-weight:500;font-size:13px;">Typeset at 100 points</text>
        </g>
        <g transform="matrix(1,0,0,1,263,726)">
            <text x="0px" y="0px" style="font-family:'LucidaGrande', 'Lucida Grande', sans-serif;font-weight:500;font-size:13px;">Small</text>
        </g>
        <g transform="matrix(1,0,0,1,263,1156)">
            <text x="0px" y="0px" style="font-family:'LucidaGrande', 'Lucida Grande', sans-serif;font-weight:500;font-size:13px;">Medium</text>
        </g>
        <g transform="matrix(1,0,0,1,263,1586)">
            <text x="0px" y="0px" style="font-family:'LucidaGrande', 'Lucida Grande', sans-serif;font-weight:500;font-size:13px;">Large</text>
        </g>
    </g>
    <g id="Guides">
        <g id="H-reference" transform="matrix(1,0,0,1,339,696)">
            <path d="M0.993,0L3.638,0L29.328,-67.133L30.03,-67.133L30.03,-70.459L28.123,-70.459L0.993,0ZM11.688,-24.48L46.982,-24.48L46.231,-26.729L12.438,-26.729L11.688,-24.48ZM55.119,0L57.764,0L30.638,-70.459L29.433,-70.459L29.433,-67.133L55.119,0Z" style="fill:rgb(39,170,225);fill-rule:nonzero;"/>
        </g>
        <path id="Baseline-S" d="M263,696L3036,696" style="fill:none;fill-rule:nonzero;stroke:rgb(39,170,225);stroke-width:0.5px;"/>
        <path id="Capline-S" d="M263,625.541L3036,625.541" style="fill:none;fill-rule:nonzero;stroke:rgb(39,170,225);stroke-width:0.5px;"/>
        <g id="H-reference1" serif:id="H-reference" transform="matrix(1,0,0,1,339,1126)">
            <path d="M0.993,0L3.638,0L29.328,-67.133L30.03,-67.133L30.03,-70.459L28.123,-70.459L0.993,0ZM11.688,-24.48L46.982,-24.48L46.231,-26.729L12.438,-26.729L11.688,-24.48ZM55.119,0L57.764,0L30.638,-70.459L29.433,-70.459L29.433,-67.133L55.119,0Z" style="fill:rgb(39,170,225);fill-rule:nonzero;"/>
        </g>
        <path id="Baseline-M" d="M263,1126L3036,1126" style="fill:none;fill-rule:nonzero;stroke:rgb(39,170,225);stroke-width:0.5px;"/>
        <path id="Capline-M" d="M263,1055.54L3036,1055.54" style="fill:none;fill-rule:nonzero;stroke:rgb(39,170,225);stroke-width:0.5px;"/>
        <g id="H-reference2" serif:id="H-reference" transform="matrix(1,0,0,1,339,1556)">
            <path d="M0.993,0L3.638,0L29.328,-67.133L30.03,-67.133L30.03,-70.459L28.123,-70.459L0.993,0ZM11.688,-24.48L46.982,-24.48L46.231,-26.729L12.438,-26.729L11.688,-24.48ZM55.119,0L57.764,0L30.638,-70.459L29.433,-70.459L29.433,-67.133L55.119,0Z" style="fill:rgb(39,170,225);fill-rule:nonzero;"/>
        </g>
        <path id="Baseline-L" d="M263,1556L3036,1556" style="fill:none;fill-rule:nonzero;stroke:rgb(39,170,225);stroke-width:0.5px;"/>
        <path id="Capline-L" d="M263,1485.54L3036,1485.54" style="fill:none;fill-rule:nonzero;stroke:rgb(39,170,225);stroke-width:0.5px;"/>
        <path id="left-margin-Ultralight-S" d="M505.702,600.784L505.702,720.121" style="fill:none;fill-rule:nonzero;stroke:rgb(0,174,239);stroke-width:0.5px;"/>
        <path id="right-margin-Ultralight-S" d="M613.72,600.784L613.72,720.121" style="fill:none;fill-rule:nonzero;stroke:rgb(0,174,239);stroke-width:0.5px;"/>
        <path id="left-margin-Regular-S" d="M1394.79,600.784L1394.79,720.121" style="fill:none;fill-rule:nonzero;stroke:rgb(0,174,239);stroke-width:0.5px;"/>
        <path id="right-margin-Regular-S" d="M1504.9,600.784L1504.9,720.121" style="fill:none;fill-rule:nonzero;stroke:rgb(0,174,239);stroke-width:0.5px;"/>
        <path id="left-margin-Black-S" d="M2877.35,600.784L2877.35,720.121" style="fill:none;fill-rule:nonzero;stroke:rgb(0,174,239);stroke-width:0.5px;"/>
        <path id="right-margin-Black-S" d="M2989.45,600.784L2989.45,720.121" style="fill:none;fill-rule:nonzero;stroke:rgb(0,174,239);stroke-width:0.5px;"/>
    </g>
    <g id="Symbols">
        <g id="Black-S">
            <path d="M2889.52,628.625C2892,625.023 2896.15,622.66 2900.84,622.66L2965.97,622.66C2973.54,622.66 2979.69,628.812 2979.69,636.389L2979.69,685.201C2979.69,685.266 2979.69,685.331 2979.69,685.397L2979.69,685.423L2979.69,685.467L2979.69,685.555L2979.69,685.593L2979.69,685.621L2979.69,685.644L2979.69,685.679L2979.68,685.732L2979.68,685.79L2979.68,685.83L2979.68,685.847L2979.68,685.864L2979.68,685.882L2979.68,685.907L2979.67,685.991L2979.67,686.038L2979.67,686.058L2979.67,686.086L2979.66,686.215L2979.66,686.246L2979.65,686.281L2979.65,686.301L2979.65,686.345L2979.64,686.431L2979.64,686.452L2979.63,686.485L2979.63,686.518L2979.63,686.554L2979.62,686.604L2979.62,686.635L2979.62,686.658L2979.61,686.695L2979.61,686.734L2979.61,686.753L2979.6,686.777L2979.6,686.828L2979.59,686.862L2979.59,686.897L2979.58,686.949L2979.57,687.024L2979.57,687.066L2979.57,687.088L2979.56,687.12L2979.56,687.143L2979.55,687.163L2979.55,687.21L2979.54,687.232L2979.54,687.269L2979.54,687.291L2979.53,687.339L2979.52,687.376L2979.52,687.413L2979.51,687.461L2979.49,687.54L2979.49,687.588L2979.48,687.609L2979.48,687.63L2979.47,687.655L2979.47,687.672L2979.46,687.713L2979.45,687.799L2979.44,687.843L2979.43,687.872L2979.43,687.908L2979.41,687.966L2979.41,687.988L2979.41,688.009L2979.4,688.043L2979.39,688.071L2979.39,688.096L2979.38,688.134L2979.37,688.181L2979.36,688.217L2979.36,688.245L2979.35,688.269L2979.35,688.282L2979.34,688.3L2979.32,688.38L2979.31,688.424L2979.31,688.443L2979.3,688.466L2979.26,688.63C2979.25,688.686 2979.23,688.74 2979.22,688.794L2979.17,688.958L2979.13,689.12C2977.44,694.79 2972.18,698.93 2965.97,698.93L2900.84,698.93C2894.1,698.93 2888.48,694.05 2887.33,687.63L2887.3,687.482L2887.3,687.461L2887.29,687.378L2887.28,687.333L2887.28,687.304L2887.27,687.291L2887.27,687.258L2887.26,687.184L2887.25,687.145L2887.25,687.12L2887.24,687.092L2887.24,687.045L2887.24,687.035L2887.23,686.981L2887.23,686.949L2887.22,686.932L2887.22,686.906L2887.22,686.884L2887.21,686.839L2887.2,686.777L2887.2,686.749L2887.2,686.734L2887.2,686.689L2887.19,686.626L2887.19,686.595L2887.18,686.583L2887.18,686.541L2887.18,686.485L2887.17,686.456L2887.17,686.431L2887.17,686.392L2887.16,686.344L2887.16,686.309L2887.16,686.279L2887.16,686.257L2887.15,686.235L2887.15,686.203L2887.15,686.161L2887.15,686.126L2887.14,686.102L2887.14,686.082L2887.14,686.061L2887.14,686.013L2887.14,685.973L2887.14,685.948L2887.13,685.907L2887.13,685.863L2887.13,685.82L2887.13,685.799L2887.13,685.776L2887.13,685.75L2887.13,685.732L2887.12,685.702L2887.12,685.666L2887.12,685.65L2887.12,685.633L2887.12,685.586L2887.12,685.555L2887.12,685.535L2887.12,685.511L2887.12,685.489L2887.12,685.415L2887.12,685.379L2887.12,685.351C2887.12,685.301 2887.12,685.251 2887.12,685.201L2887.12,685.351L2887.12,685.364L2887.12,685.201L2887.12,636.389L2887.12,636.229C2887.12,636.282 2887.12,636.335 2887.12,636.389C2887.12,636.335 2887.12,636.282 2887.12,636.229L2887.12,636.211L2887.12,636.182L2887.12,636.123L2887.12,636.065L2887.12,636.035L2887.12,636.017C2887.12,635.964 2887.12,635.911 2887.13,635.858C2887.12,635.911 2887.12,635.964 2887.12,636.017C2887.14,635.308 2887.21,634.613 2887.34,633.935L2887.34,633.918L2887.35,633.877L2887.36,633.791L2887.37,633.74L2887.38,633.707L2887.39,633.675L2887.39,633.623L2887.41,633.538L2887.42,633.498L2887.43,633.481C2887.45,633.361 2887.48,633.243 2887.51,633.124L2887.54,632.985L2887.55,632.959C2887.55,632.959 2887.56,632.902 2887.56,632.902L2887.58,632.847L2887.59,632.81L2887.59,632.795L2887.6,632.762L2887.62,632.709L2887.63,632.661L2887.64,632.632L2887.64,632.608L2887.65,632.571L2887.67,632.503L2887.68,632.47L2887.69,632.456L2887.7,632.434L2887.73,632.326L2887.73,632.305C2887.75,632.254 2887.77,632.203 2887.78,632.152L2887.82,632.027L2887.83,632.003L2887.84,631.988L2887.85,631.957L2887.87,631.893L2887.88,631.852L2887.89,631.829L2887.9,631.804L2887.92,631.759L2887.94,631.699L2887.95,631.67L2887.95,631.654L2887.97,631.626L2888,631.537L2888.01,631.513L2888.01,631.494L2888.07,631.362L2888.1,631.277L2888.12,631.231L2888.13,631.202L2888.14,631.175L2888.17,631.1L2888.19,631.066L2888.2,631.047L2888.21,631.014L2888.23,630.97L2888.25,630.919L2888.26,630.894L2888.27,630.875L2888.28,630.841L2888.31,630.778L2888.33,630.741L2888.34,630.713L2888.37,630.654L2888.4,630.585L2888.43,630.531L2888.46,630.458L2888.47,630.439L2888.49,630.394L2888.52,630.331L2888.54,630.304L2888.54,630.29L2888.56,630.263L2888.59,630.206L2888.61,630.159L2888.62,630.141L2888.63,630.12L2888.65,630.081L2888.68,630.021L2888.7,629.994L2888.7,629.98L2888.72,629.957L2888.76,629.866L2888.78,629.833L2888.85,629.711L2888.92,629.589L2888.93,629.569L2888.94,629.558L2888.95,629.529L2888.99,629.468L2889.01,629.435L2889.02,629.414L2889.03,629.389L2889.06,629.348L2889.09,629.3L2889.1,629.272L2889.12,629.254L2889.13,629.228L2889.17,629.161L2889.19,629.131L2889.21,629.105C2889.23,629.067 2889.26,629.029 2889.28,628.991L2889.21,629.105L2889.2,629.118C2889.29,628.966 2889.39,628.817 2889.49,628.669L2889.51,628.647L2889.52,628.625ZM2897.41,660.532L2897.41,679.776C2897.41,685.669 2902.19,690.453 2908.08,690.453L2916.46,690.453L2916.46,660.532L2897.41,660.532ZM2969.41,670.68L2934.67,660.532L2926.46,660.532L2926.46,690.453L2958.73,690.453C2964.62,690.453 2969.41,685.669 2969.41,679.776L2969.41,670.68ZM2979.35,688.253L2979.36,688.227L2979.35,688.253ZM2979.4,688.056L2979.4,688.032L2979.4,688.056ZM2887.28,687.328L2887.29,687.378L2887.3,687.421L2887.28,687.309L2887.28,687.328ZM2887.26,687.184L2887.27,687.25L2887.25,687.147L2887.26,687.184ZM2887.23,686.984L2887.24,687.039L2887.24,687.085L2887.23,686.984ZM2887.21,686.839L2887.22,686.894L2887.22,686.922L2887.21,686.817L2887.21,686.839ZM2887.2,686.689L2887.2,686.749L2887.2,686.758L2887.19,686.644L2887.2,686.689ZM2979.61,686.702L2979.61,686.688L2979.61,686.702ZM2887.17,686.456L2887.18,686.541L2887.18,686.574L2887.17,686.452L2887.17,686.456ZM2979.63,686.493L2979.64,686.482L2979.63,686.493ZM2887.16,686.309L2887.17,686.392L2887.17,686.399L2887.16,686.289L2887.16,686.309ZM2887.15,686.161L2887.15,686.215L2887.15,686.115L2887.15,686.161ZM2887.14,685.948L2887.14,686.013L2887.14,686.039L2887.14,685.936L2887.14,685.948ZM2887.13,685.799L2887.13,685.87L2887.13,685.769L2887.13,685.799ZM2979.68,685.863L2979.68,685.847L2979.68,685.819L2979.68,685.863ZM2887.12,685.65L2887.12,685.696L2887.12,685.599L2887.12,685.65ZM2979.69,685.665L2979.69,685.633L2979.69,685.608L2979.69,685.665ZM2887.12,685.501L2887.12,685.528L2887.12,685.423L2887.12,685.501ZM2979.69,685.46L2979.69,685.417L2979.69,685.404L2979.69,685.46ZM2941.01,631.137L2941.01,651.975L2969.41,660.272L2969.41,641.814C2969.41,635.921 2964.62,631.137 2958.73,631.137L2941.01,631.137ZM2931.01,631.137L2908.08,631.137C2902.19,631.137 2897.41,635.921 2897.41,641.814L2897.41,650.532L2931.01,650.532L2931.01,631.137ZM2887.12,636.123L2887.12,636.182L2887.12,636.065L2887.12,636.123ZM2887.58,632.835L2887.56,632.902L2887.56,632.924L2887.59,632.817L2887.58,632.835ZM2887.62,632.698L2887.6,632.757L2887.63,632.662L2887.62,632.698ZM2887.67,632.511L2887.66,632.562L2887.65,632.599L2887.67,632.511ZM2887.7,632.429L2887.69,632.448L2887.72,632.355L2887.7,632.429ZM2887.78,632.162C2887.76,632.208 2887.75,632.253 2887.74,632.299L2887.78,632.162ZM2887.82,632.037L2887.8,632.095L2887.83,632.017L2887.82,632.037ZM2887.87,631.908L2887.85,631.944L2887.88,631.873L2887.87,631.908ZM2887.91,631.779L2887.9,631.798L2887.93,631.73L2887.91,631.779ZM2887.98,631.588L2887.96,631.654L2887.98,631.588ZM2888.05,631.394L2888.03,631.445L2888.06,631.385L2888.05,631.394ZM2888.11,631.266L2888.09,631.304L2888.11,631.245L2888.11,631.266ZM2888.16,631.14L2888.15,631.163L2888.17,631.107L2888.16,631.14ZM2888.21,631.014L2888.21,631.021L2888.22,630.978L2888.21,631.014ZM2888.32,630.767L2888.3,630.808L2888.32,630.767ZM2888.38,630.628L2888.37,630.654L2888.36,630.681L2888.38,630.628ZM2888.43,630.516L2888.42,630.546L2888.45,630.493L2888.43,630.516ZM2888.49,630.394L2888.48,630.411L2888.51,630.362L2888.49,630.394ZM2888.61,630.164L2888.6,630.18L2888.61,630.164ZM2888.68,630.025L2888.67,630.044L2888.65,630.079L2888.68,630.025ZM2888.75,629.891L2888.73,629.924L2888.72,629.949L2888.75,629.891ZM2888.8,629.792L2888.79,629.818L2888.82,629.758L2888.8,629.792ZM2888.87,629.673L2888.86,629.687L2888.92,629.592L2888.87,629.673ZM2889.01,629.436L2889,629.452L2888.97,629.507L2889.01,629.436ZM2889.09,629.303L2889.07,629.335L2889.04,629.375L2889.09,629.303ZM2889.17,629.167L2889.14,629.22L2889.12,629.246L2889.17,629.167Z"/>
        </g>
        <g id="Regular-S">
            <path d="M1415.23,625.199L1415.16,625.199L1415.1,625.2C1415,625.201 1414.9,625.204 1414.8,625.208L1414.79,625.208L1414.75,625.21L1414.68,625.213L1414.67,625.214L1414.65,625.215L1414.63,625.216L1414.62,625.217L1414.59,625.219L1414.55,625.221L1414.51,625.224L1414.48,625.225L1414.46,625.227L1414.45,625.228L1414.43,625.229L1414.41,625.23L1414.35,625.236L1414.31,625.239L1414.3,625.24L1414.27,625.242L1414.16,625.253L1414.14,625.254L1414.12,625.256L1414.11,625.258L1414.07,625.262L1414.01,625.269L1413.99,625.271L1413.98,625.273L1413.96,625.275L1413.94,625.277L1413.91,625.28L1413.88,625.285L1413.84,625.29L1413.81,625.294L1413.79,625.296L1413.78,625.298L1413.76,625.3L1413.74,625.303L1413.68,625.312L1413.64,625.317L1413.63,625.32C1413.44,625.347 1413.26,625.38 1413.08,625.416L1412.95,625.444C1412.84,625.469 1412.72,625.496 1412.61,625.525C1412.55,625.539 1412.5,625.554 1412.44,625.569L1412.31,625.605C1412.19,625.638 1412.08,625.674 1411.96,625.711C1410.9,626.054 1409.91,626.558 1409.02,627.195L1409,627.208L1408.98,627.221L1408.95,627.246L1408.93,627.263L1408.91,627.274L1408.89,627.291L1408.85,627.323L1408.79,627.362L1408.77,627.38L1408.76,627.389L1408.74,627.399L1408.71,627.425L1408.69,627.439L1408.68,627.452L1408.64,627.478L1408.63,627.488L1408.61,627.505L1408.54,627.558L1408.51,627.582L1408.49,627.598L1408.47,627.615L1408.44,627.639L1408.41,627.666L1408.39,627.68L1408.38,627.694L1408.36,627.711L1408.35,627.721L1408.25,627.805L1408.23,627.816L1408.22,627.826L1408.2,627.846L1408.15,627.889L1408.12,627.917L1408.1,627.932L1408.09,627.942L1408.08,627.956C1407.93,628.09 1407.78,628.229 1407.64,628.371L1407.63,628.386L1407.62,628.398C1407.46,628.561 1407.3,628.729 1407.15,628.903C1407.15,628.903 1407.08,628.988 1407.08,628.988L1407.04,629.036L1407.03,629.048L1407.02,629.057C1406.98,629.103 1406.94,629.148 1406.91,629.194L1406.83,629.287L1406.8,629.33L1406.79,629.345L1406.78,629.357C1406.74,629.403 1406.71,629.449 1406.67,629.496L1406.6,629.594L1406.57,629.634L1406.56,629.65L1406.55,629.665C1406.52,629.712 1406.48,629.759 1406.45,629.806L1406.38,629.909L1406.36,629.947L1406.34,629.964L1406.33,629.981C1405.66,630.997 1405.15,632.136 1404.86,633.356L1404.85,633.371L1404.84,633.405L1404.83,633.467L1404.82,633.504L1404.82,633.532L1404.81,633.56L1404.8,633.597L1404.79,633.659L1404.78,633.694L1404.78,633.709L1404.77,633.727C1404.76,633.771 1404.76,633.814 1404.75,633.857L1404.72,633.989C1404.71,634.03 1404.71,634.071 1404.7,634.113L1404.7,634.12C1404.7,634.12 1404.69,634.184 1404.69,634.184L1404.68,634.228L1404.68,634.253L1404.67,634.278L1404.67,634.335L1404.66,634.366L1404.66,634.385L1404.66,634.407L1404.65,634.452L1404.64,634.494L1404.64,634.519L1404.64,634.532L1404.63,634.569L1404.63,634.604L1404.62,634.661L1404.62,634.686L1404.62,634.72L1404.61,634.77L1404.61,634.803L1404.61,634.836L1404.6,634.879L1404.6,634.902L1404.6,634.921L1404.6,634.951L1404.59,634.989L1404.59,635.016L1404.59,635.04L1404.59,635.057L1404.59,635.074L1404.58,635.099L1404.58,635.131L1404.58,635.158L1404.58,635.177L1404.58,635.209L1404.57,635.247L1404.57,635.277L1404.57,635.297L1404.57,635.329L1404.57,635.363L1404.57,635.397L1404.57,635.413L1404.57,635.431L1404.56,635.451L1404.56,635.465L1404.56,635.488L1404.56,635.517L1404.56,635.542L1404.56,635.578L1404.56,635.602L1404.56,635.618L1404.56,635.654L1404.56,635.711L1404.56,635.74L1404.56,635.766L1404.56,635.878C1404.56,635.878 1404.56,685.712 1404.56,685.712C1404.56,685.861 1404.56,686.009 1404.57,686.156L1404.57,686.176L1404.57,686.204L1404.57,686.261L1404.57,686.292L1404.57,686.312L1404.57,686.339L1404.58,686.363L1404.58,686.377L1404.58,686.397L1404.58,686.467L1404.58,686.499L1404.59,686.515L1404.59,686.533L1404.59,686.55L1404.59,686.572L1404.6,686.668L1404.6,686.685L1404.6,686.714L1404.6,686.736L1404.61,686.76L1404.61,686.803L1404.62,686.841L1404.62,686.87L1404.62,686.899L1404.62,686.921L1404.62,686.937L1404.63,687.019L1404.64,687.054L1404.64,687.092L1404.65,687.105L1404.65,687.132L1404.66,687.204L1404.66,687.22L1404.66,687.238L1404.67,687.268L1404.67,687.288L1404.67,687.306L1404.68,687.337L1404.69,687.384L1404.69,687.42L1404.7,687.445L1404.7,687.469L1404.72,687.574L1404.72,687.601L1404.73,687.632L1404.73,687.651L1404.74,687.677L1404.75,687.732L1404.75,687.756L1404.76,687.781L1404.76,687.812L1404.77,687.83L1404.77,687.843L1404.77,687.863L1404.79,687.919L1404.79,687.96L1404.8,687.98L1404.8,688.009L1404.81,688.032L1404.83,688.122L1404.83,688.138L1404.84,688.169L1404.84,688.187L1404.85,688.21L1404.86,688.251L1404.87,688.283L1404.88,688.315L1404.88,688.345L1404.89,688.364L1404.89,688.379L1404.91,688.449L1404.92,688.491L1404.93,688.526L1404.93,688.539L1404.94,688.567L1404.96,688.634L1404.96,688.646L1404.97,688.665L1404.98,688.695L1404.98,688.713L1404.99,688.732L1405,688.76L1405.01,688.801L1405.02,688.839L1405.03,688.865L1405.04,688.891L1405.07,688.977L1405.08,689.011L1405.09,689.04L1405.09,689.058L1405.1,689.086L1405.12,689.135L1405.12,689.156L1405.13,689.182L1405.14,689.21L1405.15,689.228L1405.15,689.242L1405.16,689.259L1405.18,689.311L1405.19,689.351L1405.2,689.37L1405.21,689.398L1405.22,689.423L1405.25,689.504L1405.26,689.519L1405.27,689.547L1405.27,689.565L1405.28,689.589L1405.3,689.626L1405.31,689.656L1405.32,689.686L1405.33,689.713L1405.34,689.732L1405.35,689.747L1405.37,689.814L1405.39,689.852L1405.4,689.883L1405.41,689.897L1405.42,689.926L1405.45,689.986L1405.45,689.999L1405.46,690.016L1405.47,690.041L1405.48,690.061L1405.49,690.08L1405.5,690.105L1405.52,690.146L1405.53,690.179L1405.54,690.201L1405.55,690.223L1405.56,690.232L1405.6,690.319L1405.61,690.34L1405.62,690.365L1405.63,690.384L1405.64,690.411L1405.67,690.456L1405.68,690.479L1405.69,690.499L1405.7,690.523L1405.71,690.543L1405.72,690.556L1405.73,690.572L1405.75,690.626L1405.77,690.658L1405.78,690.672L1405.79,690.701L1405.81,690.725L1405.85,690.8L1405.85,690.814L1405.87,690.837L1405.88,690.857L1405.89,690.879L1405.91,690.913L1405.93,690.946L1405.94,690.97L1405.95,690.991L1405.96,691.012L1405.97,691.026L1406.01,691.099L1406.03,691.123L1406.05,691.153L1406.05,691.165L1406.07,691.19L1406.1,691.247L1406.11,691.263L1406.12,691.275L1406.13,691.296L1406.14,691.316L1406.15,691.332L1406.17,691.357L1406.2,691.401L1406.21,691.425L1406.22,691.441C1406.49,691.86 1406.79,692.258 1407.11,692.635L1407.12,692.65L1407.13,692.666C1407.39,692.968 1407.67,693.256 1407.96,693.528L1408.06,693.615C1408.09,693.644 1408.12,693.672 1408.15,693.701L1408.25,693.785C1408.38,693.898 1408.51,694.008 1408.65,694.115L1408.74,694.19L1408.76,694.2L1408.79,694.224L1408.85,694.268L1408.87,694.282L1408.9,694.308L1408.95,694.344L1408.98,694.363L1409.01,694.388L1409.05,694.419L1409.07,694.428L1409.09,694.442L1409.12,694.465L1409.16,694.493L1409.17,694.504L1409.2,694.521L1409.23,694.541L1409.27,694.566L1409.29,694.579L1409.31,694.593L1409.34,694.615L1409.37,694.637L1409.39,694.652L1409.42,694.668L1409.45,694.688L1409.48,694.707L1409.51,694.724L1409.54,694.742L1409.56,694.759L1409.59,694.776L1409.62,694.795L1409.65,694.814L1409.67,694.829L1409.7,694.844L1409.73,694.864L1409.77,694.885L1409.79,694.898L1409.81,694.91L1409.85,694.933L1409.89,694.955L1409.9,694.966L1409.92,694.975L1409.96,695L1410.01,695.023L1410.02,695.032L1410.03,695.039L1410.08,695.066L1410.12,695.089L1410.15,695.101L1410.2,695.131L1410.25,695.154L1410.26,695.162L1410.33,695.198L1410.37,695.218L1410.37,695.22C1410.76,695.417 1411.15,695.592 1411.56,695.742L1411.69,695.786C1411.73,695.8 1411.76,695.813 1411.8,695.826L1411.81,695.829C1411.81,695.829 1411.86,695.846 1411.86,695.846L1411.9,695.858L1411.93,695.87L1411.97,695.881L1412.01,695.895L1412.04,695.904L1412.06,695.91L1412.08,695.917L1412.12,695.927L1412.16,695.94L1412.19,695.948L1412.22,695.958L1412.29,695.978L1412.32,695.987C1412.35,695.997 1412.39,696.007 1412.43,696.017L1412.44,696.02L1412.47,696.028L1412.53,696.044L1412.55,696.05L1412.57,696.054L1412.59,696.061L1412.63,696.07L1412.67,696.08L1412.69,696.086L1412.71,696.091L1412.74,696.096L1412.75,696.1L1412.79,696.11L1412.82,696.117L1412.86,696.125L1412.9,696.133L1412.95,696.146L1412.97,696.15L1413.01,696.157L1413.05,696.167L1413.08,696.174L1413.11,696.18L1413.16,696.188L1413.17,696.192L1413.21,696.199L1413.24,696.203L1413.26,696.209L1413.28,696.212L1413.3,696.216L1413.32,696.22L1413.35,696.224L1413.37,696.228L1413.39,696.232L1413.41,696.235L1413.44,696.24L1413.48,696.246L1413.5,696.25L1413.52,696.254L1413.55,696.258L1413.58,696.264L1413.61,696.267L1413.63,696.271L1413.66,696.275L1413.69,696.28L1413.72,696.284L1413.75,696.288L1413.77,696.291L1413.8,696.295L1413.83,696.299L1413.86,696.303L1413.89,696.307L1413.91,696.309L1413.94,696.313L1413.97,696.317L1413.99,696.319L1414.02,696.322L1414.05,696.326L1414.09,696.329L1414.11,696.331L1414.13,696.334L1414.14,696.335L1414.17,696.338L1414.2,696.341L1414.22,696.343L1414.24,696.344L1414.26,696.347L1414.28,696.348L1414.29,696.35L1414.31,696.351L1414.33,696.353L1414.35,696.354L1414.39,696.357L1414.41,696.359L1414.44,696.361L1414.46,696.363L1414.5,696.366L1414.55,696.369L1414.57,696.37L1414.62,696.373L1414.65,696.375L1414.68,696.377L1414.73,696.379L1414.77,696.381L1414.81,696.382L1414.82,696.383L1414.85,696.384L1414.89,696.385L1414.9,696.385L1414.93,696.386L1414.96,696.387L1414.98,696.387L1415.01,696.388L1415.07,696.389L1415.1,696.39L1415.12,696.39L1415.23,696.391L1484.45,696.391C1490.35,696.391 1495.13,691.606 1495.13,685.712L1495.13,635.878C1495.13,629.984 1490.35,625.199 1484.45,625.199L1415.23,625.199ZM1415.12,696.39L1415.23,696.391L1415.11,696.39L1415.12,696.39ZM1415.01,696.388L1415.07,696.389L1414.98,696.388L1415.01,696.388ZM1414.89,696.385L1414.93,696.386L1414.85,696.384L1414.89,696.385ZM1414.72,696.378L1414.78,696.381L1414.8,696.382L1414.72,696.378ZM1414.62,696.373L1414.67,696.376L1414.67,696.376L1414.57,696.37L1414.62,696.373ZM1414.44,696.361L1414.5,696.366L1414.52,696.367L1414.43,696.361L1414.44,696.361ZM1414.33,696.353L1414.38,696.357L1414.3,696.35L1414.33,696.353ZM1414.22,696.343L1414.25,696.345L1414.17,696.338L1414.22,696.343ZM1414.05,696.326L1414.11,696.331L1414.12,696.333L1414.04,696.324L1414.05,696.326ZM1413.94,696.313L1413.99,696.318L1413.91,696.309L1413.94,696.313ZM1413.77,696.29L1413.83,696.299L1413.85,696.301L1413.77,696.29ZM1413.66,696.275L1413.72,696.284L1413.64,696.272L1413.66,696.275ZM1413.5,696.25L1413.55,696.258L1413.58,696.262L1413.5,696.25ZM1413.39,696.232L1413.45,696.241L1413.37,696.229L1413.39,696.232ZM1413.28,696.212L1413.32,696.218L1413.25,696.206L1413.28,696.212ZM1413.11,696.179L1413.17,696.192L1413.19,696.195L1413.11,696.179ZM1413.01,696.157L1413.07,696.17L1412.98,696.151L1413.01,696.157ZM1412.85,696.123L1412.9,696.133L1412.92,696.138L1412.84,696.121L1412.85,696.123ZM1412.75,696.098L1412.79,696.109L1412.72,696.093L1412.75,696.098ZM1412.64,696.072L1412.67,696.079L1412.6,696.063L1412.64,696.072ZM1412.53,696.045L1412.55,696.049L1412.48,696.03L1412.53,696.045ZM1412.32,695.988L1412.43,696.017L1412.43,696.018L1412.32,695.987L1412.32,695.988ZM1412.21,695.957L1412.28,695.976L1412.2,695.953L1412.21,695.957ZM1412.11,695.926L1412.15,695.938L1412.08,695.917L1412.11,695.926ZM1411.96,695.88L1412.01,695.893L1412.03,695.902L1411.96,695.88ZM1411.84,695.84L1411.9,695.86L1411.92,695.864L1411.84,695.84ZM1410.22,695.142L1410.25,695.158L1410.22,695.142ZM1410.13,695.092L1410.14,695.095L1410.1,695.074L1410.13,695.092ZM1410.01,695.026L1410.02,695.031L1409.98,695.007L1410.01,695.026ZM1409.89,694.958L1409.9,694.965L1409.86,694.94L1409.89,694.958ZM1409.77,694.889L1409.79,694.898L1409.74,694.871L1409.77,694.889ZM1409.66,694.818L1409.67,694.829L1409.63,694.801L1409.66,694.818ZM1409.54,694.746L1409.56,694.759L1409.52,694.73L1409.54,694.746ZM1409.43,694.672L1409.45,694.687L1409.4,694.658L1409.43,694.672ZM1409.31,694.597L1409.34,694.614L1409.29,694.584L1409.31,694.597ZM1409.2,694.52L1409.23,694.539L1409.18,694.509L1409.2,694.52ZM1409.09,694.442L1409.12,694.463L1409.07,694.433L1409.09,694.442ZM1408.98,694.362L1409.01,694.385L1408.96,694.355L1408.98,694.362ZM1408.86,694.281L1408.9,694.306L1408.86,694.276L1408.86,694.281ZM1408.75,694.196L1408.79,694.223L1408.75,694.196ZM1406.13,691.292L1406.13,691.3L1406.13,691.292ZM1405.95,690.988L1405.95,690.993L1405.95,690.988ZM1405.86,690.834L1405.87,690.842L1405.86,690.834ZM1411.84,658.882L1411.84,681.702C1411.84,686.647 1415.86,690.662 1420.8,690.662L1435.33,690.662L1435.33,658.882L1411.84,658.882ZM1487.84,668.932L1451.61,658.882L1441.33,658.882L1441.33,690.662L1478.88,690.662C1483.83,690.662 1487.84,686.647 1487.84,681.702L1487.84,668.932ZM1405.7,690.514L1405.7,690.529L1405.7,690.514ZM1405.47,690.033L1405.48,690.052L1405.47,690.033ZM1405.33,689.706L1405.33,689.716L1405.33,689.706ZM1405.26,689.541L1405.27,689.559L1405.26,689.541ZM1405.14,689.199L1405.15,689.218L1405.14,689.199ZM1405.09,689.039L1405.09,689.044L1405.09,689.039ZM1404.98,688.686L1404.98,688.707L1404.98,688.686ZM1404.88,688.341L1404.88,688.348L1404.88,688.341ZM1404.84,688.163L1404.84,688.18L1404.84,688.163ZM1404.76,687.803L1404.76,687.818L1404.76,687.803ZM1404.67,687.261L1404.67,687.276L1404.67,687.261ZM1404.62,686.899L1404.62,686.899L1404.62,686.899ZM1404.6,686.712L1404.6,686.717L1404.6,686.712ZM1404.57,686.335L1404.57,686.342L1404.57,686.335ZM1455.64,630.928L1455.64,653.775L1487.84,662.707L1487.84,639.888C1487.84,634.943 1483.83,630.928 1478.88,630.928L1455.64,630.928ZM1449.64,630.928L1420.8,630.928C1415.86,630.928 1411.84,634.943 1411.84,639.888L1411.84,652.882L1449.64,652.882L1449.64,630.928ZM1404.56,635.761L1404.56,635.878C1404.56,635.878 1404.56,635.751 1404.56,635.751L1404.56,635.761ZM1404.56,635.645L1404.56,635.706L1404.56,635.624L1404.56,635.645ZM1404.56,635.529L1404.56,635.568L1404.56,635.493L1404.56,635.529ZM1404.57,635.358L1404.57,635.413L1404.57,635.436L1404.57,635.358ZM1404.57,635.247L1404.57,635.297L1404.57,635.306L1404.58,635.226L1404.57,635.247ZM1404.58,635.131L1404.58,635.167L1404.59,635.089L1404.58,635.131ZM1404.6,634.946L1404.59,635.016L1404.59,635.032L1404.6,634.946ZM1404.61,634.836L1404.6,634.905L1404.61,634.81L1404.61,634.836ZM1404.62,634.674L1404.62,634.72L1404.61,634.756L1404.62,634.667L1404.62,634.674ZM1404.64,634.561L1404.63,634.621L1404.64,634.54L1404.64,634.561ZM1404.65,634.448L1404.64,634.491L1404.66,634.412L1404.65,634.448ZM1404.67,634.335L1404.66,634.364L1404.67,634.284L1404.67,634.335ZM1404.69,634.151L1404.68,634.223L1404.68,634.238L1404.69,634.151ZM1404.79,633.659L1404.78,633.709L1404.79,633.659ZM1406.34,629.964L1406.33,629.981L1406.36,629.947L1406.34,629.964ZM1406.56,629.65L1406.55,629.664L1406.57,629.636L1406.56,629.65ZM1406.79,629.345L1406.78,629.355L1406.8,629.332L1406.79,629.345ZM1407.03,629.048L1407.02,629.056L1407.04,629.037L1407.03,629.048ZM1408.1,627.937L1408.09,627.946L1408.11,627.924L1408.1,627.937ZM1408.38,627.693L1408.38,627.694L1408.38,627.693ZM1412.69,625.503L1412.82,625.473L1412.69,625.503C1412.65,625.514 1412.61,625.525 1412.57,625.536L1412.44,625.569C1412.5,625.554 1412.55,625.539 1412.61,625.525L1412.69,625.503ZM1413.79,625.296L1413.78,625.298L1413.81,625.294L1413.79,625.296ZM1413.96,625.275L1413.94,625.278L1413.97,625.274L1413.96,625.275ZM1414.46,625.227L1414.45,625.228L1414.48,625.226L1414.46,625.227ZM1414.63,625.216L1414.62,625.217L1414.64,625.215L1414.63,625.216Z"/>
        </g>
        <g id="Ultralight-S">
            <path d="M603.955,635.899C603.955,631.071 600.035,627.152 595.208,627.152L524.215,627.152C519.387,627.152 515.468,631.071 515.468,635.899L515.468,685.691C515.468,690.519 519.387,694.438 524.215,694.438L595.208,694.438C600.035,694.438 603.955,690.519 603.955,685.691L603.955,635.899ZM517.211,657.152L517.211,684.71C517.211,689.347 520.976,693.112 525.614,693.112L547.508,693.112L547.508,657.152L517.211,657.152ZM602.211,667.99L561.762,657.152L549.508,657.152L549.508,693.112L593.809,693.112C598.446,693.112 602.211,689.347 602.211,684.71L602.211,667.99ZM563.508,628.477L563.508,655.549L602.211,665.919L602.211,636.88C602.211,632.243 598.446,628.477 593.809,628.477L563.508,628.477ZM561.508,628.477L525.614,628.477C520.976,628.477 517.211,632.243 517.211,636.88L517.211,655.152L561.508,655.152L561.508,628.477Z"/>
        </g>
    </g>
</svg>
