<?xml version="1.0" encoding="UTF-8" standalone="no"?>
<!DOCTYPE svg PUBLIC "-//W3C//DTD SVG 1.1//EN" "http://www.w3.org/Graphics/SVG/1.1/DTD/svg11.dtd">
<svg width="100%" height="100%" viewBox="0 0 700 640" version="1.1" xmlns="http://www.w3.org/2000/svg" xmlns:xlink="http://www.w3.org/1999/xlink" xml:space="preserve" xmlns:serif="http://www.serif.com/" style="fill-rule:evenodd;clip-rule:evenodd;stroke-linejoin:round;stroke-miterlimit:2;">
    <g transform="matrix(7.06636,0,0,7.06636,-9895.12,-4349.41)">
        <path d="M1420.47,625.199C1409.63,625.199 1405.84,632.43 1405.83,639.84C1405.82,650.082 1405.89,675.51 1405.83,685.712C1405.8,690.561 1410.49,696.391 1415.23,696.391C1428.53,696.391 1471.15,696.331 1484.45,696.391C1489.48,696.414 1494.28,690.746 1494.28,685.712L1494.28,635.878C1494.28,630.844 1489.48,625.199 1484.45,625.199C1471.16,625.199 1433.76,625.199 1420.47,625.199ZM1411.84,658.882L1411.84,681.702C1411.84,686.647 1415.86,690.662 1420.8,690.662L1436.6,690.662L1436.6,658.882L1411.84,658.882ZM1487.84,668.932L1451.61,658.882L1441.33,658.882L1441.33,690.662L1478.88,690.662C1483.83,690.662 1487.84,686.647 1487.84,681.702L1487.84,668.932ZM1454.79,630.928L1454.79,654.483L1487.84,663.415L1487.84,639.888C1487.84,634.943 1483.83,630.928 1478.88,630.928L1454.79,630.928ZM1449.64,630.928L1420.8,630.928C1416.66,630.928 1411.84,635.751 1411.84,639.888C1411.84,644.025 1412.05,654.156 1412.05,654.156L1449.85,654.156L1449.64,630.928Z"/>
    </g>
</svg>
