<?xml version="1.0" encoding="UTF-8" standalone="no"?>
<!DOCTYPE svg PUBLIC "-//W3C//DTD SVG 1.1//EN" "http://www.w3.org/Graphics/SVG/1.1/DTD/svg11.dtd">
<svg width="100%" height="100%" viewBox="0 0 3300 2200" version="1.1" xmlns="http://www.w3.org/2000/svg" xmlns:xlink="http://www.w3.org/1999/xlink" xml:space="preserve" xmlns:serif="http://www.serif.com/" style="fill-rule:evenodd;clip-rule:evenodd;">
    <g id="Page-1">
        <g id="Artboard">
            <g id="folder.fill">
                <g id="Notes">
                    <rect id="artboard" x="0" y="0" width="3300" height="2200" style="fill:white;"/>
                    <path id="Path" d="M263,292L3036,292" style="fill:none;stroke:black;stroke-width:0.5px;"/>
                    <g transform="matrix(1,0,0,1,263,322)">
                        <g id="Weight-Scale-Variations" serif:id="Weight/Scale-Variations">
                            <text x="0px" y="0px" style="font-family:'Helvetica';font-size:13px;">Weight/Scale Variations</text>
                        </g>
                    </g>
                    <g transform="matrix(1,0,0,1,533.711,322)">
                        <g id="Ultralight">
                            <text x="0px" y="0px" style="font-family:'Helvetica';font-size:13px;">Ultralight</text>
                        </g>
                    </g>
                    <g transform="matrix(1,0,0,1,843.422,322)">
                        <g id="Thin">
                            <text x="0px" y="0px" style="font-family:'Helvetica';font-size:13px;">Thin</text>
                        </g>
                    </g>
                    <g transform="matrix(1,0,0,1,1138.63,322)">
                        <g id="Light">
                            <text x="0px" y="0px" style="font-family:'Helvetica';font-size:13px;">Light</text>
                        </g>
                    </g>
                    <g transform="matrix(1,0,0,1,1426.84,322)">
                        <g id="Regular">
                            <text x="0px" y="0px" style="font-family:'Helvetica';font-size:13px;">Regular</text>
                        </g>
                    </g>
                    <g transform="matrix(1,0,0,1,1723.06,322)">
                        <g id="Medium">
                            <text x="0px" y="0px" style="font-family:'Helvetica';font-size:13px;">Medium</text>
                        </g>
                    </g>
                    <g transform="matrix(1,0,0,1,2015.77,322)">
                        <g id="Semibold">
                            <text x="0px" y="0px" style="font-family:'Helvetica';font-size:13px;">Semibold</text>
                        </g>
                    </g>
                    <g transform="matrix(1,0,0,1,2326.48,322)">
                        <g id="Bold">
                            <text x="0px" y="0px" style="font-family:'Helvetica';font-size:13px;">Bold</text>
                        </g>
                    </g>
                    <g transform="matrix(1,0,0,1,2618.19,322)">
                        <g id="Heavy">
                            <text x="0px" y="0px" style="font-family:'Helvetica';font-size:13px;">Heavy</text>
                        </g>
                    </g>
                    <g transform="matrix(1,0,0,1,2917.4,322)">
                        <g id="Black">
                            <text x="0px" y="0px" style="font-family:'Helvetica';font-size:13px;">Black</text>
                        </g>
                    </g>
                    <path id="Path1" serif:id="Path" d="M263,1903L3036,1903" style="fill:none;stroke:black;stroke-width:0.5px;"/>
                    <g id="Group" transform="matrix(1,0,0,1,264,1918)">
                        <path id="Shape" d="M8.248,15.83C9.329,15.83 10.344,15.625 11.295,15.215C12.245,14.805 13.084,14.235 13.81,13.506C14.535,12.777 15.105,11.937 15.519,10.986C15.932,10.036 16.139,9.023 16.139,7.949C16.139,6.875 15.932,5.863 15.519,4.912C15.105,3.962 14.534,3.122 13.805,2.393C13.076,1.663 12.236,1.094 11.285,0.684C10.335,0.273 9.319,0.068 8.238,0.068C7.164,0.068 6.152,0.273 5.201,0.684C4.251,1.094 3.414,1.663 2.691,2.393C1.969,3.122 1.401,3.962 0.987,4.912C0.574,5.863 0.367,6.875 0.367,7.949C0.367,9.023 0.574,10.036 0.987,10.986C1.401,11.937 1.97,12.777 2.696,13.506C3.422,14.235 4.26,14.805 5.211,15.215C6.161,15.625 7.174,15.83 8.248,15.83ZM8.248,14.346C7.363,14.346 6.534,14.181 5.763,13.853C4.991,13.524 4.314,13.066 3.731,12.48C3.149,11.895 2.693,11.214 2.364,10.439C2.035,9.665 1.871,8.835 1.871,7.949C1.871,7.064 2.034,6.234 2.359,5.459C2.685,4.684 3.139,4.004 3.722,3.418C4.304,2.832 4.981,2.375 5.753,2.046C6.524,1.717 7.353,1.553 8.238,1.553C9.13,1.553 9.962,1.717 10.733,2.046C11.505,2.375 12.184,2.832 12.77,3.418C13.355,4.004 13.814,4.684 14.147,5.459C14.479,6.234 14.645,7.064 14.645,7.949C14.645,8.835 14.48,9.665 14.151,10.439C13.823,11.214 13.367,11.895 12.784,12.48C12.202,13.066 11.523,13.524 10.748,13.853C9.973,14.181 9.14,14.346 8.248,14.346ZM4.654,7.949C4.654,8.164 4.723,8.338 4.859,8.472C4.996,8.605 5.178,8.672 5.406,8.672L7.516,8.672L7.516,10.791C7.516,11.006 7.581,11.183 7.711,11.323C7.841,11.463 8.017,11.533 8.238,11.533C8.453,11.533 8.631,11.463 8.771,11.323C8.91,11.183 8.98,11.006 8.98,10.791L8.98,8.672L11.09,8.672C11.311,8.672 11.49,8.605 11.627,8.472C11.764,8.338 11.832,8.164 11.832,7.949C11.832,7.728 11.764,7.549 11.627,7.412C11.49,7.275 11.311,7.207 11.09,7.207L8.98,7.207L8.98,5.098C8.98,4.876 8.91,4.696 8.771,4.556C8.631,4.416 8.453,4.346 8.238,4.346C8.017,4.346 7.841,4.416 7.711,4.556C7.581,4.696 7.516,4.876 7.516,5.098L7.516,7.207L5.406,7.207C5.178,7.207 4.996,7.275 4.859,7.412C4.723,7.549 4.654,7.728 4.654,7.949Z" style="fill-rule:nonzero;"/>
                    </g>
                    <g id="Group1" serif:id="Group" transform="matrix(1,0,0,1,282.867,1915)">
                        <path id="Shape1" serif:id="Shape" d="M10.709,20.91C12.07,20.91 13.351,20.65 14.552,20.129C15.753,19.608 16.813,18.889 17.731,17.971C18.648,17.053 19.368,15.993 19.889,14.792C20.41,13.591 20.67,12.31 20.67,10.949C20.67,9.589 20.41,8.308 19.889,7.106C19.368,5.905 18.648,4.846 17.731,3.928C16.813,3.01 15.751,2.29 14.547,1.77C13.342,1.249 12.06,0.988 10.699,0.988C9.339,0.988 8.058,1.249 6.856,1.77C5.655,2.29 4.597,3.01 3.683,3.928C2.768,4.846 2.05,5.905 1.529,7.106C1.008,8.308 0.748,9.589 0.748,10.949C0.748,12.31 1.008,13.591 1.529,14.792C2.05,15.993 2.77,17.053 3.688,17.971C4.605,18.889 5.665,19.608 6.866,20.129C8.067,20.65 9.348,20.91 10.709,20.91ZM10.709,19.25C9.557,19.25 8.479,19.035 7.477,18.605C6.474,18.176 5.593,17.582 4.835,16.823C4.077,16.065 3.484,15.184 3.058,14.182C2.631,13.179 2.418,12.102 2.418,10.949C2.418,9.797 2.631,8.719 3.058,7.717C3.484,6.714 4.075,5.832 4.83,5.07C5.585,4.309 6.464,3.715 7.467,3.288C8.469,2.862 9.547,2.648 10.699,2.648C11.852,2.648 12.929,2.862 13.932,3.288C14.934,3.715 15.816,4.309 16.578,5.07C17.34,5.832 17.936,6.714 18.365,7.717C18.795,8.719 19.01,9.797 19.01,10.949C19.01,12.102 18.797,13.179 18.37,14.182C17.944,15.184 17.351,16.065 16.593,16.823C15.834,17.582 14.952,18.176 13.946,18.605C12.94,19.035 11.861,19.25 10.709,19.25ZM6.178,10.949C6.178,11.184 6.256,11.376 6.412,11.525C6.568,11.675 6.77,11.75 7.018,11.75L9.889,11.75L9.889,14.631C9.889,14.878 9.964,15.078 10.113,15.231C10.263,15.384 10.455,15.461 10.69,15.461C10.937,15.461 11.137,15.384 11.29,15.231C11.443,15.078 11.52,14.878 11.52,14.631L11.52,11.75L14.4,11.75C14.648,11.75 14.848,11.675 15.001,11.525C15.154,11.376 15.23,11.184 15.23,10.949C15.23,10.702 15.154,10.502 15.001,10.349C14.848,10.196 14.648,10.119 14.4,10.119L11.52,10.119L11.52,7.248C11.52,6.994 11.443,6.791 11.29,6.638C11.137,6.485 10.937,6.408 10.69,6.408C10.455,6.408 10.263,6.486 10.113,6.643C9.964,6.799 9.889,7.001 9.889,7.248L9.889,10.119L7.018,10.119C6.764,10.119 6.56,10.196 6.407,10.349C6.254,10.502 6.178,10.702 6.178,10.949Z" style="fill-rule:nonzero;"/>
                    </g>
                    <g id="Group2" serif:id="Group" transform="matrix(1,0,0,1,307.646,1913)">
                        <path id="Shape2" serif:id="Shape" d="M12.971,25.664C14.364,25.664 15.694,25.448 16.96,25.015C18.226,24.582 19.39,23.975 20.451,23.193C21.512,22.412 22.435,21.491 23.22,20.43C24.004,19.368 24.613,18.203 25.046,16.934C25.479,15.664 25.695,14.336 25.695,12.949C25.695,11.556 25.479,10.226 25.046,8.96C24.613,7.694 24.004,6.53 23.22,5.469C22.435,4.408 21.512,3.485 20.451,2.7C19.39,1.916 18.225,1.307 16.955,0.874C15.686,0.441 14.354,0.225 12.961,0.225C11.568,0.225 10.238,0.441 8.972,0.874C7.705,1.307 6.543,1.916 5.485,2.7C4.427,3.485 3.506,4.408 2.722,5.469C1.937,6.53 1.33,7.694 0.9,8.96C0.471,10.226 0.256,11.556 0.256,12.949C0.256,14.336 0.472,15.664 0.905,16.934C1.338,18.203 1.945,19.368 2.727,20.43C3.508,21.491 4.429,22.412 5.49,23.193C6.551,23.975 7.715,24.582 8.981,25.015C10.248,25.448 11.578,25.664 12.971,25.664ZM12.971,23.848C11.766,23.848 10.619,23.664 9.528,23.296C8.438,22.928 7.44,22.412 6.535,21.748C5.63,21.084 4.844,20.298 4.177,19.39C3.509,18.481 2.993,17.482 2.629,16.392C2.264,15.301 2.082,14.154 2.082,12.949C2.082,11.738 2.264,10.588 2.629,9.497C2.993,8.407 3.508,7.407 4.172,6.499C4.836,5.591 5.62,4.805 6.525,4.141C7.43,3.477 8.428,2.962 9.519,2.598C10.609,2.233 11.757,2.051 12.961,2.051C14.172,2.051 15.323,2.233 16.413,2.598C17.504,2.962 18.503,3.477 19.411,4.141C20.319,4.805 21.105,5.591 21.77,6.499C22.434,7.407 22.95,8.407 23.317,9.497C23.685,10.588 23.869,11.738 23.869,12.949C23.876,14.154 23.697,15.301 23.332,16.392C22.967,17.482 22.452,18.481 21.784,19.39C21.117,20.298 20.329,21.084 19.421,21.748C18.513,22.412 17.513,22.928 16.423,23.296C15.332,23.664 14.182,23.848 12.971,23.848ZM7.199,12.949C7.199,13.203 7.285,13.413 7.458,13.579C7.631,13.745 7.85,13.828 8.117,13.828L12.063,13.828L12.063,17.783C12.063,18.05 12.146,18.27 12.312,18.442C12.477,18.615 12.691,18.701 12.951,18.701C13.218,18.701 13.438,18.617 13.61,18.447C13.783,18.278 13.869,18.057 13.869,17.783L13.869,13.828L17.824,13.828C18.091,13.828 18.309,13.745 18.479,13.579C18.648,13.413 18.732,13.203 18.732,12.949C18.732,12.676 18.648,12.454 18.479,12.285C18.309,12.116 18.091,12.031 17.824,12.031L13.869,12.031L13.869,8.086C13.869,7.813 13.783,7.59 13.61,7.417C13.438,7.244 13.218,7.158 12.951,7.158C12.691,7.158 12.477,7.244 12.312,7.417C12.146,7.59 12.063,7.813 12.063,8.086L12.063,12.031L8.117,12.031C7.844,12.031 7.622,12.116 7.453,12.285C7.284,12.454 7.199,12.676 7.199,12.949Z" style="fill-rule:nonzero;"/>
                    </g>
                    <g transform="matrix(1,0,0,1,263,1953)">
                        <g id="Design-Variations">
                            <text x="0px" y="0px" style="font-family:'Helvetica';font-size:13px;">Design Variations</text>
                        </g>
                    </g>
                    <g transform="matrix(1,0,0,1,263,1971)">
                        <g id="Symbols-are-supported-in-up-to-nine-weights-and-three-scales.">
                            <text x="0px" y="0px" style="font-family:'Helvetica';font-size:13px;">Symbols are supported in up to nine weights and three scales.</text>
                        </g>
                    </g>
                    <g transform="matrix(1,0,0,1,263,1989)">
                        <g id="For-optimal-layout-with-text-and-other-symbols--vertically-align" serif:id="For-optimal-layout-with-text-and-other-symbols,-vertically-align">
                            <text x="0px" y="0px" style="font-family:'Helvetica';font-size:13px;">For optimal layout with text and other symbols, vertically align</text>
                        </g>
                    </g>
                    <g transform="matrix(1,0,0,1,263,2007)">
                        <g id="symbols-with-the-adjacent-text.">
                            <text x="0px" y="0px" style="font-family:'Helvetica';font-size:13px;">symbols with the adjacent text.</text>
                        </g>
                    </g>
                    <path id="Path2" serif:id="Path" d="M776,1919L776,1933" style="fill:none;stroke:rgb(0,174,239);stroke-width:0.5px;"/>
                    <g id="Group3" serif:id="Group" transform="matrix(1,0,0,1,778,1918)">
                        <path id="Shape3" serif:id="Shape" d="M1.311,15.156C1.571,15.156 1.773,15.101 1.916,14.99C2.059,14.88 2.176,14.688 2.268,14.414L3.527,10.967L9.289,10.967L10.549,14.414C10.64,14.688 10.757,14.88 10.9,14.99C11.044,15.101 11.242,15.156 11.496,15.156C11.757,15.156 11.963,15.085 12.116,14.941C12.269,14.798 12.346,14.603 12.346,14.355C12.346,14.206 12.31,14.03 12.238,13.828L7.658,1.631C7.541,1.331 7.382,1.107 7.18,0.957C6.978,0.807 6.721,0.732 6.408,0.732C5.803,0.732 5.393,1.029 5.178,1.621L0.598,13.838C0.526,14.04 0.49,14.215 0.49,14.365C0.49,14.613 0.563,14.806 0.71,14.946C0.856,15.086 1.057,15.156 1.311,15.156ZM4.006,9.482L6.379,2.91L6.428,2.91L8.801,9.482L4.006,9.482Z" style="fill-rule:nonzero;"/>
                    </g>
                    <path id="Path3" serif:id="Path" d="M793.197,1919L793.197,1933" style="fill:none;stroke:rgb(0,174,239);stroke-width:0.5px;"/>
                    <g transform="matrix(1,0,0,1,776,1953)">
                        <g id="Margins">
                            <text x="0px" y="0px" style="font-family:'Helvetica';font-size:13px;">Margins</text>
                        </g>
                    </g>
                    <g transform="matrix(1,0,0,1,776,1971)">
                        <g id="Leading-and-trailing-margins-on-the-left-and-right-side-of-each-symbol">
                            <text x="0px" y="0px" style="font-family:'Helvetica';font-size:13px;">Leading and trailing margins on the left and right side of each symbol</text>
                        </g>
                    </g>
                    <g transform="matrix(1,0,0,1,776,1989)">
                        <g id="can-be-adjusted-by-modifying-the-x-location-of-the-margin-guidelines.">
                            <text x="0px" y="0px" style="font-family:'Helvetica';font-size:13px;">can be adjusted by modifying the x-location of the margin guidelines.</text>
                        </g>
                    </g>
                    <g transform="matrix(1,0,0,1,776,2007)">
                        <g id="Modifications-are-automatically-applied-proportionally-to-all">
                            <text x="0px" y="0px" style="font-family:'Helvetica';font-size:13px;">Modiﬁcations are automatically applied proportionally to all</text>
                        </g>
                    </g>
                    <g transform="matrix(1,0,0,1,776,2025)">
                        <g id="scales-and-weights.">
                            <text x="0px" y="0px" style="font-family:'Helvetica';font-size:13px;">scales and weights.</text>
                        </g>
                    </g>
                    <g id="Group4" serif:id="Group" transform="matrix(1,0,0,1,1291,1914)">
                        <path id="Shape4" serif:id="Shape" d="M0.842,20.865L2.541,22.574C2.971,23.01 3.425,23.212 3.903,23.18C4.382,23.147 4.852,22.874 5.314,22.359L16.008,10.572L15.041,9.596L4.426,21.275C4.25,21.477 4.073,21.591 3.894,21.617C3.715,21.643 3.508,21.539 3.273,21.305L2.102,20.143C1.867,19.908 1.765,19.701 1.794,19.522C1.823,19.343 1.939,19.163 2.141,18.98L13.615,8.18L12.639,7.213L1.047,18.102C0.552,18.557 0.287,19.023 0.251,19.498C0.215,19.973 0.412,20.429 0.842,20.865ZM7.258,2.672C7.049,2.874 6.932,3.105 6.906,3.365C6.88,3.626 6.926,3.854 7.043,4.049C7.16,4.231 7.331,4.368 7.556,4.459C7.78,4.55 8.055,4.557 8.381,4.479C9.11,4.309 9.849,4.239 10.598,4.269C11.346,4.298 12.079,4.547 12.795,5.016L12.209,6.471C12.04,6.887 11.993,7.25 12.067,7.56C12.142,7.869 12.313,8.16 12.58,8.434L14.875,10.748C15.116,10.995 15.35,11.139 15.578,11.178C15.806,11.217 16.06,11.21 16.34,11.158L17.404,10.963L18.068,11.637L18.029,12.193C18.01,12.441 18.041,12.669 18.122,12.877C18.203,13.085 18.365,13.31 18.606,13.551L19.367,14.293C19.608,14.534 19.87,14.659 20.153,14.669C20.437,14.679 20.695,14.566 20.93,14.332L23.84,11.412C24.074,11.178 24.188,10.922 24.182,10.646C24.175,10.369 24.051,10.11 23.811,9.869L23.039,9.107C22.805,8.867 22.585,8.702 22.38,8.614C22.175,8.526 21.952,8.492 21.711,8.512L21.135,8.561L20.49,7.926L20.734,6.803C20.799,6.523 20.786,6.261 20.695,6.017C20.604,5.772 20.412,5.504 20.119,5.211L17.922,3.023C17.089,2.197 16.201,1.577 15.261,1.163C14.32,0.75 13.373,0.535 12.419,0.519C11.465,0.502 10.547,0.676 9.665,1.041C8.783,1.406 7.98,1.949 7.258,2.672ZM8.752,3.043C9.357,2.6 10.007,2.285 10.7,2.096C11.394,1.907 12.095,1.847 12.805,1.915C13.514,1.983 14.203,2.174 14.87,2.486C15.537,2.799 16.148,3.235 16.701,3.795L19.133,6.207C19.25,6.324 19.323,6.438 19.353,6.549C19.382,6.659 19.377,6.799 19.338,6.969L19.016,8.453L20.52,9.938L21.506,9.879C21.63,9.872 21.724,9.881 21.789,9.903C21.854,9.926 21.936,9.986 22.033,10.084L22.609,10.66L20.168,13.102L19.592,12.525C19.494,12.428 19.432,12.346 19.406,12.281C19.38,12.216 19.37,12.118 19.377,11.988L19.445,11.012L17.951,9.527L16.428,9.781C16.265,9.814 16.136,9.819 16.042,9.796C15.948,9.773 15.839,9.703 15.715,9.586L13.713,7.584C13.583,7.467 13.509,7.355 13.493,7.247C13.477,7.14 13.508,6.995 13.586,6.813L14.465,4.723C13.684,3.994 12.805,3.489 11.828,3.209C10.852,2.929 9.855,2.939 8.84,3.238C8.762,3.258 8.711,3.243 8.689,3.194C8.666,3.146 8.687,3.095 8.752,3.043Z" style="fill-rule:nonzero;"/>
                    </g>
                    <g transform="matrix(1,0,0,1,1289,1953)">
                        <g id="Exporting">
                            <text x="0px" y="0px" style="font-family:'Helvetica';font-size:13px;">Exporting</text>
                        </g>
                    </g>
                    <g transform="matrix(1,0,0,1,1289,1971)">
                        <g id="Symbols-should-be-outlined-when-exporting-to-ensure-the">
                            <text x="0px" y="0px" style="font-family:'Helvetica';font-size:13px;">Symbols should be outlined when exporting to ensure the</text>
                        </g>
                    </g>
                    <g transform="matrix(1,0,0,1,1289,1989)">
                        <g id="design-is-preserved-when-submitting-to-Xcode.">
                            <text x="0px" y="0px" style="font-family:'Helvetica';font-size:13px;">design is preserved when submitting to Xcode.</text>
                        </g>
                    </g>
                    <g transform="matrix(1,0,0,1,2952,1933)">
                        <g id="template-version">
                            <text x="0px" y="0px" style="font-family:'Helvetica';font-size:13px;">Template v.3.0</text>
                        </g>
                    </g>
                    <g transform="matrix(1,0,0,1,2865,1951)">
                        <g id="Requires-Xcode-13-or-greater">
                            <text x="0px" y="0px" style="font-family:'Helvetica';font-size:13px;">Requires Xcode 13 or greater</text>
                        </g>
                    </g>
                    <g transform="matrix(1,0,0,1,2893,1969)">
                        <g id="descriptive-name">
                            <text x="0px" y="0px" style="font-family:'Helvetica';font-size:13px;">Generated from folder.ﬁll</text>
                        </g>
                    </g>
                    <g transform="matrix(1,0,0,1,2912,1987)">
                        <g id="Typeset-at-100-points">
                            <text x="0px" y="0px" style="font-family:'Helvetica';font-size:13px;">Typeset at 100 points</text>
                        </g>
                    </g>
                    <g transform="matrix(1,0,0,1,263,726)">
                        <g id="Small">
                            <text x="0px" y="0px" style="font-family:'Helvetica';font-size:13px;">Small</text>
                        </g>
                    </g>
                    <g transform="matrix(1,0,0,1,263,1156)">
                        <g id="Medium1" serif:id="Medium">
                            <text x="0px" y="0px" style="font-family:'Helvetica';font-size:13px;">Medium</text>
                        </g>
                    </g>
                    <g transform="matrix(1,0,0,1,263,1586)">
                        <g id="Large">
                            <text x="0px" y="0px" style="font-family:'Helvetica';font-size:13px;">Large</text>
                        </g>
                    </g>
                </g>
                <g id="Guides" transform="matrix(1,0,0,1,263,600)">
                    <g id="H-reference" transform="matrix(1,0,0,1,76,25)">
                        <path id="Shape5" serif:id="Shape" d="M0.977,71L3.662,71L29.346,3.861L30.029,3.861L30.029,0.541L28.125,0.541L0.977,71ZM11.67,46.537L46.973,46.537L46.24,44.291L12.451,44.291L11.67,46.537ZM55.127,71L57.764,71L30.615,0.541L29.443,0.541L29.443,3.861L55.127,71Z" style="fill:rgb(39,170,225);fill-rule:nonzero;"/>
                    </g>
                    <path id="Baseline-S" d="M0,96L2773,96" style="fill:none;stroke:rgb(39,170,225);stroke-width:0.5px;"/>
                    <path id="Capline-S" d="M0,25.541L2773,25.541" style="fill:none;stroke:rgb(39,170,225);stroke-width:0.5px;"/>
                    <g id="H-reference1" serif:id="H-reference" transform="matrix(1,0,0,1,76,455)">
                        <path id="Shape6" serif:id="Shape" d="M0.977,71L3.662,71L29.346,3.861L30.029,3.861L30.029,0.541L28.125,0.541L0.977,71ZM11.67,46.537L46.973,46.537L46.24,44.291L12.451,44.291L11.67,46.537ZM55.127,71L57.764,71L30.615,0.541L29.443,0.541L29.443,3.861L55.127,71Z" style="fill:rgb(39,170,225);fill-rule:nonzero;"/>
                    </g>
                    <path id="Baseline-M" d="M0,526L2773,526" style="fill:none;stroke:rgb(39,170,225);stroke-width:0.5px;"/>
                    <path id="Capline-M" d="M0,455.54L2773,455.54" style="fill:none;stroke:rgb(39,170,225);stroke-width:0.5px;"/>
                    <g id="H-reference2" serif:id="H-reference" transform="matrix(1,0,0,1,76,885)">
                        <path id="Shape7" serif:id="Shape" d="M0.977,71L3.662,71L29.346,3.861L30.029,3.861L30.029,0.541L28.125,0.541L0.977,71ZM11.67,46.537L46.973,46.537L46.24,44.291L12.451,44.291L11.67,46.537ZM55.127,71L57.764,71L30.615,0.541L29.443,0.541L29.443,3.861L55.127,71Z" style="fill:rgb(39,170,225);fill-rule:nonzero;"/>
                    </g>
                    <path id="Baseline-L" d="M0,956L2773,956" style="fill:none;stroke:rgb(39,170,225);stroke-width:0.5px;"/>
                    <path id="Capline-L" d="M0,885.54L2773,885.54" style="fill:none;stroke:rgb(39,170,225);stroke-width:0.5px;"/>
                    <path id="left-margin-Ultralight-S" d="M245.1,0.785L245.1,120.121" style="fill:none;stroke:rgb(0,174,239);stroke-width:0.5px;"/>
                    <path id="right-margin-Ultralight-S" d="M348.322,0.785L348.322,120.121" style="fill:none;stroke:rgb(0,174,239);stroke-width:0.5px;"/>
                    <path id="left-margin-Thin-S" d="M541.371,0.785L541.371,120.121" style="fill:none;stroke:rgb(0,174,239);stroke-width:0.5px;"/>
                    <path id="right-margin-Thin-S" d="M645.473,0.785L645.473,120.121" style="fill:none;stroke:rgb(0,174,239);stroke-width:0.5px;"/>
                    <path id="left-margin-Light-S" d="M837.23,0.785L837.23,120.121" style="fill:none;stroke:rgb(0,174,239);stroke-width:0.5px;"/>
                    <path id="right-margin-Light-S" d="M943.04,0.785L943.04,120.121" style="fill:none;stroke:rgb(0,174,239);stroke-width:0.5px;"/>
                    <path id="left-margin-Regular-S" d="M1133.3,0.785L1133.3,120.121" style="fill:none;stroke:rgb(0,174,239);stroke-width:0.5px;"/>
                    <path id="right-margin-Regular-S" d="M1240.38,0.785L1240.38,120.121" style="fill:none;stroke:rgb(0,174,239);stroke-width:0.5px;"/>
                    <path id="left-margin-Medium-S" d="M1429.65,0.785L1429.65,120.121" style="fill:none;stroke:rgb(0,174,239);stroke-width:0.5px;"/>
                    <path id="right-margin-Medium-S" d="M1537.46,0.785L1537.46,120.121" style="fill:none;stroke:rgb(0,174,239);stroke-width:0.5px;"/>
                    <path id="left-margin-Semibold-S" d="M1726.09,0.785L1726.09,120.121" style="fill:none;stroke:rgb(0,174,239);stroke-width:0.5px;"/>
                    <path id="right-margin-Semibold-S" d="M1834.44,0.785L1834.44,120.121" style="fill:none;stroke:rgb(0,174,239);stroke-width:0.5px;"/>
                    <path id="left-margin-Bold-S" d="M2022.41,0.785L2022.41,120.121" style="fill:none;stroke:rgb(0,174,239);stroke-width:0.5px;"/>
                    <path id="right-margin-Bold-S" d="M2131.54,0.785L2131.54,120.121" style="fill:none;stroke:rgb(0,174,239);stroke-width:0.5px;"/>
                    <path id="left-margin-Heavy-S" d="M2318.61,0.785L2318.61,120.121" style="fill:none;stroke:rgb(0,174,239);stroke-width:0.5px;"/>
                    <path id="right-margin-Heavy-S" d="M2428.77,0.785L2428.77,120.121" style="fill:none;stroke:rgb(0,174,239);stroke-width:0.5px;"/>
                    <path id="left-margin-Black-S" d="M2614.83,0.785L2614.83,120.121" style="fill:none;stroke:rgb(0,174,239);stroke-width:0.5px;"/>
                    <path id="right-margin-Black-S" d="M2725.97,0.785L2725.97,120.121" style="fill:none;stroke:rgb(0,174,239);stroke-width:0.5px;"/>
                    <path id="left-margin-Ultralight-M" d="M231.013,430.79L231.013,550.12" style="fill:none;stroke:rgb(0,174,239);stroke-width:0.5px;"/>
                    <path id="right-margin-Ultralight-M" d="M362.409,430.79L362.409,550.12" style="fill:none;stroke:rgb(0,174,239);stroke-width:0.5px;"/>
                    <path id="left-margin-Thin-M" d="M527.236,430.79L527.236,550.12" style="fill:none;stroke:rgb(0,174,239);stroke-width:0.5px;"/>
                    <path id="right-margin-Thin-M" d="M659.609,430.79L659.609,550.12" style="fill:none;stroke:rgb(0,174,239);stroke-width:0.5px;"/>
                    <path id="left-margin-Light-M" d="M822.97,430.79L822.97,550.12" style="fill:none;stroke:rgb(0,174,239);stroke-width:0.5px;"/>
                    <path id="right-margin-Light-M" d="M957.3,430.79L957.3,550.12" style="fill:none;stroke:rgb(0,174,239);stroke-width:0.5px;"/>
                    <path id="left-margin-Regular-M" d="M1118.95,430.79L1118.95,550.12" style="fill:none;stroke:rgb(0,174,239);stroke-width:0.5px;"/>
                    <path id="right-margin-Regular-M" d="M1254.74,430.79L1254.74,550.12" style="fill:none;stroke:rgb(0,174,239);stroke-width:0.5px;"/>
                    <path id="left-margin-Medium-M" d="M1415.15,430.79L1415.15,550.12" style="fill:none;stroke:rgb(0,174,239);stroke-width:0.5px;"/>
                    <path id="right-margin-Medium-M" d="M1551.96,430.79L1551.96,550.12" style="fill:none;stroke:rgb(0,174,239);stroke-width:0.5px;"/>
                    <path id="left-margin-Semibold-M" d="M1711.47,430.79L1711.47,550.12" style="fill:none;stroke:rgb(0,174,239);stroke-width:0.5px;"/>
                    <path id="right-margin-Semibold-M" d="M1849.07,430.79L1849.07,550.12" style="fill:none;stroke:rgb(0,174,239);stroke-width:0.5px;"/>
                    <path id="left-margin-Bold-M" d="M2007.67,430.79L2007.67,550.12" style="fill:none;stroke:rgb(0,174,239);stroke-width:0.5px;"/>
                    <path id="right-margin-Bold-M" d="M2146.29,430.79L2146.29,550.12" style="fill:none;stroke:rgb(0,174,239);stroke-width:0.5px;"/>
                    <path id="left-margin-Heavy-M" d="M2303.64,430.79L2303.64,550.12" style="fill:none;stroke:rgb(0,174,239);stroke-width:0.5px;"/>
                    <path id="right-margin-Heavy-M" d="M2443.73,430.79L2443.73,550.12" style="fill:none;stroke:rgb(0,174,239);stroke-width:0.5px;"/>
                    <path id="left-margin-Black-M" d="M2599.7,430.79L2599.7,550.12" style="fill:none;stroke:rgb(0,174,239);stroke-width:0.5px;"/>
                    <path id="right-margin-Black-M" d="M2741.1,430.79L2741.1,550.12" style="fill:none;stroke:rgb(0,174,239);stroke-width:0.5px;"/>
                    <path id="left-margin-Ultralight-L" d="M212.165,860.79L212.165,980.12" style="fill:none;stroke:rgb(0,174,239);stroke-width:0.5px;"/>
                    <path id="right-margin-Ultralight-L" d="M381.257,860.79L381.257,980.12" style="fill:none;stroke:rgb(0,174,239);stroke-width:0.5px;"/>
                    <path id="left-margin-Thin-L" d="M508.315,860.79L508.315,980.12" style="fill:none;stroke:rgb(0,174,239);stroke-width:0.5px;"/>
                    <path id="right-margin-Thin-L" d="M678.53,860.79L678.53,980.12" style="fill:none;stroke:rgb(0,174,239);stroke-width:0.5px;"/>
                    <path id="left-margin-Light-L" d="M803.95,860.79L803.95,980.12" style="fill:none;stroke:rgb(0,174,239);stroke-width:0.5px;"/>
                    <path id="right-margin-Light-L" d="M976.31,860.79L976.31,980.12" style="fill:none;stroke:rgb(0,174,239);stroke-width:0.5px;"/>
                    <path id="left-margin-Regular-L" d="M1099.86,860.79L1099.86,980.12" style="fill:none;stroke:rgb(0,174,239);stroke-width:0.5px;"/>
                    <path id="right-margin-Regular-L" d="M1273.83,860.79L1273.83,980.12" style="fill:none;stroke:rgb(0,174,239);stroke-width:0.5px;"/>
                    <path id="left-margin-Medium-L" d="M1395.91,860.79L1395.91,980.12" style="fill:none;stroke:rgb(0,174,239);stroke-width:0.5px;"/>
                    <path id="right-margin-Medium-L" d="M1571.2,860.79L1571.2,980.12" style="fill:none;stroke:rgb(0,174,239);stroke-width:0.5px;"/>
                    <path id="left-margin-Semibold-L" d="M1692.11,860.79L1692.11,980.12" style="fill:none;stroke:rgb(0,174,239);stroke-width:0.5px;"/>
                    <path id="right-margin-Semibold-L" d="M1868.43,860.79L1868.43,980.12" style="fill:none;stroke:rgb(0,174,239);stroke-width:0.5px;"/>
                    <path id="left-margin-Bold-L" d="M1988.16,860.79L1988.16,980.12" style="fill:none;stroke:rgb(0,174,239);stroke-width:0.5px;"/>
                    <path id="right-margin-Bold-L" d="M2165.8,860.79L2165.8,980.12" style="fill:none;stroke:rgb(0,174,239);stroke-width:0.5px;"/>
                    <path id="left-margin-Heavy-L" d="M2283.89,860.79L2283.89,980.12" style="fill:none;stroke:rgb(0,174,239);stroke-width:0.5px;"/>
                    <path id="right-margin-Heavy-L" d="M2463.48,860.79L2463.48,980.12" style="fill:none;stroke:rgb(0,174,239);stroke-width:0.5px;"/>
                    <path id="left-margin-Black-L" d="M2579.75,860.79L2579.75,980.12" style="fill:none;stroke:rgb(0,174,239);stroke-width:0.5px;"/>
                    <path id="right-margin-Black-L" d="M2761.05,860.79L2761.05,980.12" style="fill:none;stroke:rgb(0,174,239);stroke-width:0.5px;"/>
                </g>
                <g id="Symbols" transform="matrix(1,0,0,1,-915,-8.29503)">
                    <g id="Black-L" transform="matrix(1,0,0,1,2367.75,836)">
                        <path d="M1420.47,625.199C1409.63,625.199 1405.84,632.43 1405.83,639.84C1405.82,650.082 1405.89,675.51 1405.83,685.712C1405.8,690.561 1410.49,696.391 1415.23,696.391C1428.53,696.391 1471.15,696.331 1484.45,696.391C1489.48,696.414 1494.28,690.746 1494.28,685.712L1494.28,635.878C1494.28,630.844 1489.48,625.199 1484.45,625.199L1420.47,625.199ZM1411.84,658.882L1411.84,681.702C1411.84,686.647 1415.86,690.662 1420.8,690.662L1436.6,690.662L1436.6,658.882L1411.84,658.882ZM1487.84,668.932L1451.61,658.882L1441.33,658.882L1441.33,690.662L1478.88,690.662C1483.83,690.662 1487.84,686.647 1487.84,681.702L1487.84,668.932ZM1454.79,630.928L1454.79,654.483L1487.84,663.415L1487.84,639.888C1487.84,634.943 1483.83,630.928 1478.88,630.928L1454.79,630.928ZM1449.64,630.928L1420.8,630.928C1416.66,630.928 1411.84,635.751 1411.84,639.888C1411.84,644.025 1412.05,654.156 1412.05,654.156L1449.85,654.156L1449.64,630.928Z" style="fill:rgb(88,86,214);fill-rule:nonzero;"/>
                    </g>
                    <g id="Heavy-L" transform="matrix(1,0,0,1,2071.89,837)">
                        <path d="M1420.47,625.199C1409.63,625.199 1405.84,632.43 1405.83,639.84C1405.82,650.082 1405.89,675.51 1405.83,685.712C1405.8,690.561 1410.49,696.391 1415.23,696.391C1428.53,696.391 1471.15,696.331 1484.45,696.391C1489.48,696.414 1494.28,690.746 1494.28,685.712L1494.28,635.878C1494.28,630.844 1489.48,625.199 1484.45,625.199L1420.47,625.199ZM1411.84,658.882L1411.84,681.702C1411.84,686.647 1415.86,690.662 1420.8,690.662L1436.6,690.662L1436.6,658.882L1411.84,658.882ZM1487.84,668.932L1451.61,658.882L1441.33,658.882L1441.33,690.662L1478.88,690.662C1483.83,690.662 1487.84,686.647 1487.84,681.702L1487.84,668.932ZM1454.79,630.928L1454.79,654.483L1487.84,663.415L1487.84,639.888C1487.84,634.943 1483.83,630.928 1478.88,630.928L1454.79,630.928ZM1449.64,630.928L1420.8,630.928C1416.66,630.928 1411.84,635.751 1411.84,639.888C1411.84,644.025 1412.05,654.156 1412.05,654.156L1449.85,654.156L1449.64,630.928Z" style="fill:rgb(88,86,214);fill-rule:nonzero;"/>
                    </g>
                    <g id="Bold-L" transform="matrix(1,0,0,1,1776.16,839)">
                        <path d="M1420.47,625.199C1409.63,625.199 1405.84,632.43 1405.83,639.84C1405.82,650.082 1405.89,675.51 1405.83,685.712C1405.8,690.561 1410.49,696.391 1415.23,696.391C1428.53,696.391 1471.15,696.331 1484.45,696.391C1489.48,696.414 1494.28,690.746 1494.28,685.712L1494.28,635.878C1494.28,630.844 1489.48,625.199 1484.45,625.199L1420.47,625.199ZM1411.84,658.882L1411.84,681.702C1411.84,686.647 1415.86,690.662 1420.8,690.662L1436.6,690.662L1436.6,658.882L1411.84,658.882ZM1487.84,668.932L1451.61,658.882L1441.33,658.882L1441.33,690.662L1478.88,690.662C1483.83,690.662 1487.84,686.647 1487.84,681.702L1487.84,668.932ZM1454.79,630.928L1454.79,654.483L1487.84,663.415L1487.84,639.888C1487.84,634.943 1483.83,630.928 1478.88,630.928L1454.79,630.928ZM1449.64,630.928L1420.8,630.928C1416.66,630.928 1411.84,635.751 1411.84,639.888C1411.84,644.025 1412.05,654.156 1412.05,654.156L1449.85,654.156L1449.64,630.928Z" style="fill:rgb(88,86,214);fill-rule:nonzero;"/>
                    </g>
                    <g id="Semibold-L" transform="matrix(1,0,0,1,1480.11,840)">
                        <path d="M1420.47,625.199C1409.63,625.199 1405.84,632.43 1405.83,639.84C1405.82,650.082 1405.89,675.51 1405.83,685.712C1405.8,690.561 1410.49,696.391 1415.23,696.391C1428.53,696.391 1471.15,696.331 1484.45,696.391C1489.48,696.414 1494.28,690.746 1494.28,685.712L1494.28,635.878C1494.28,630.844 1489.48,625.199 1484.45,625.199L1420.47,625.199ZM1411.84,658.882L1411.84,681.702C1411.84,686.647 1415.86,690.662 1420.8,690.662L1436.6,690.662L1436.6,658.882L1411.84,658.882ZM1487.84,668.932L1451.61,658.882L1441.33,658.882L1441.33,690.662L1478.88,690.662C1483.83,690.662 1487.84,686.647 1487.84,681.702L1487.84,668.932ZM1454.79,630.928L1454.79,654.483L1487.84,663.415L1487.84,639.888C1487.84,634.943 1483.83,630.928 1478.88,630.928L1454.79,630.928ZM1449.64,630.928L1420.8,630.928C1416.66,630.928 1411.84,635.751 1411.84,639.888C1411.84,644.025 1412.05,654.156 1412.05,654.156L1449.85,654.156L1449.64,630.928Z" style="fill:rgb(88,86,214);fill-rule:nonzero;"/>
                    </g>
                    <g id="Medium-L" transform="matrix(1,0,0,1,1183.91,841)">
                        <path d="M1420.47,625.199C1409.63,625.199 1405.84,632.43 1405.83,639.84C1405.82,650.082 1405.89,675.51 1405.83,685.712C1405.8,690.561 1410.49,696.391 1415.23,696.391C1428.53,696.391 1471.15,696.331 1484.45,696.391C1489.48,696.414 1494.28,690.746 1494.28,685.712L1494.28,635.878C1494.28,630.844 1489.48,625.199 1484.45,625.199L1420.47,625.199ZM1411.84,658.882L1411.84,681.702C1411.84,686.647 1415.86,690.662 1420.8,690.662L1436.6,690.662L1436.6,658.882L1411.84,658.882ZM1487.84,668.932L1451.61,658.882L1441.33,658.882L1441.33,690.662L1478.88,690.662C1483.83,690.662 1487.84,686.647 1487.84,681.702L1487.84,668.932ZM1454.79,630.928L1454.79,654.483L1487.84,663.415L1487.84,639.888C1487.84,634.943 1483.83,630.928 1478.88,630.928L1454.79,630.928ZM1449.64,630.928L1420.8,630.928C1416.66,630.928 1411.84,635.751 1411.84,639.888C1411.84,644.025 1412.05,654.156 1412.05,654.156L1449.85,654.156L1449.64,630.928Z" style="fill:rgb(88,86,214);fill-rule:nonzero;"/>
                    </g>
                    <g id="Regular-L" transform="matrix(1,0,0,1,887.86,842)">
                        <path d="M1420.47,625.199C1409.63,625.199 1405.84,632.43 1405.83,639.84C1405.82,650.082 1405.89,675.51 1405.83,685.712C1405.8,690.561 1410.49,696.391 1415.23,696.391C1428.53,696.391 1471.15,696.331 1484.45,696.391C1489.48,696.414 1494.28,690.746 1494.28,685.712L1494.28,635.878C1494.28,630.844 1489.48,625.199 1484.45,625.199L1420.47,625.199ZM1411.84,658.882L1411.84,681.702C1411.84,686.647 1415.86,690.662 1420.8,690.662L1436.6,690.662L1436.6,658.882L1411.84,658.882ZM1487.84,668.932L1451.61,658.882L1441.33,658.882L1441.33,690.662L1478.88,690.662C1483.83,690.662 1487.84,686.647 1487.84,681.702L1487.84,668.932ZM1454.79,630.928L1454.79,654.483L1487.84,663.415L1487.84,639.888C1487.84,634.943 1483.83,630.928 1478.88,630.928L1454.79,630.928ZM1449.64,630.928L1420.8,630.928C1416.66,630.928 1411.84,635.751 1411.84,639.888C1411.84,644.025 1412.05,654.156 1412.05,654.156L1449.85,654.156L1449.64,630.928Z" style="fill:rgb(88,86,214);fill-rule:nonzero;"/>
                    </g>
                    <g id="Light-L" transform="matrix(1,0,0,1,591.95,843)">
                        <path d="M1420.47,625.199C1409.63,625.199 1405.84,632.43 1405.83,639.84C1405.82,650.082 1405.89,675.51 1405.83,685.712C1405.8,690.561 1410.49,696.391 1415.23,696.391C1428.53,696.391 1471.15,696.331 1484.45,696.391C1489.48,696.414 1494.28,690.746 1494.28,685.712L1494.28,635.878C1494.28,630.844 1489.48,625.199 1484.45,625.199L1420.47,625.199ZM1411.84,658.882L1411.84,681.702C1411.84,686.647 1415.86,690.662 1420.8,690.662L1436.6,690.662L1436.6,658.882L1411.84,658.882ZM1487.84,668.932L1451.61,658.882L1441.33,658.882L1441.33,690.662L1478.88,690.662C1483.83,690.662 1487.84,686.647 1487.84,681.702L1487.84,668.932ZM1454.79,630.928L1454.79,654.483L1487.84,663.415L1487.84,639.888C1487.84,634.943 1483.83,630.928 1478.88,630.928L1454.79,630.928ZM1449.64,630.928L1420.8,630.928C1416.66,630.928 1411.84,635.751 1411.84,639.888C1411.84,644.025 1412.05,654.156 1412.05,654.156L1449.85,654.156L1449.64,630.928Z" style="fill:rgb(88,86,214);fill-rule:nonzero;"/>
                    </g>
                    <g id="Thin-L" transform="matrix(1,0,0,1,296.315,844)">
                        <path d="M1420.47,625.199C1409.63,625.199 1405.84,632.43 1405.83,639.84C1405.82,650.082 1405.89,675.51 1405.83,685.712C1405.8,690.561 1410.49,696.391 1415.23,696.391C1428.53,696.391 1471.15,696.331 1484.45,696.391C1489.48,696.414 1494.28,690.746 1494.28,685.712L1494.28,635.878C1494.28,630.844 1489.48,625.199 1484.45,625.199L1420.47,625.199ZM1411.84,658.882L1411.84,681.702C1411.84,686.647 1415.86,690.662 1420.8,690.662L1436.6,690.662L1436.6,658.882L1411.84,658.882ZM1487.84,668.932L1451.61,658.882L1441.33,658.882L1441.33,690.662L1478.88,690.662C1483.83,690.662 1487.84,686.647 1487.84,681.702L1487.84,668.932ZM1454.79,630.928L1454.79,654.483L1487.84,663.415L1487.84,639.888C1487.84,634.943 1483.83,630.928 1478.88,630.928L1454.79,630.928ZM1449.64,630.928L1420.8,630.928C1416.66,630.928 1411.84,635.751 1411.84,639.888C1411.84,644.025 1412.05,654.156 1412.05,654.156L1449.85,654.156L1449.64,630.928Z" style="fill:rgb(88,86,214);fill-rule:nonzero;"/>
                    </g>
                    <g id="Ultralight-L" transform="matrix(1,0,0,1,0.165,845)">
                        <path d="M1420.47,625.199C1409.63,625.199 1405.84,632.43 1405.83,639.84C1405.82,650.082 1405.89,675.51 1405.83,685.712C1405.8,690.561 1410.49,696.391 1415.23,696.391C1428.53,696.391 1471.15,696.331 1484.45,696.391C1489.48,696.414 1494.28,690.746 1494.28,685.712L1494.28,635.878C1494.28,630.844 1489.48,625.199 1484.45,625.199L1420.47,625.199ZM1411.84,658.882L1411.84,681.702C1411.84,686.647 1415.86,690.662 1420.8,690.662L1436.6,690.662L1436.6,658.882L1411.84,658.882ZM1487.84,668.932L1451.61,658.882L1441.33,658.882L1441.33,690.662L1478.88,690.662C1483.83,690.662 1487.84,686.647 1487.84,681.702L1487.84,668.932ZM1454.79,630.928L1454.79,654.483L1487.84,663.415L1487.84,639.888C1487.84,634.943 1483.83,630.928 1478.88,630.928L1454.79,630.928ZM1449.64,630.928L1420.8,630.928C1416.66,630.928 1411.84,635.751 1411.84,639.888C1411.84,644.025 1412.05,654.156 1412.05,654.156L1449.85,654.156L1449.64,630.928Z" style="fill:rgb(88,86,214);fill-rule:nonzero;"/>
                    </g>
                    <g id="Black-M" transform="matrix(1,0,0,1,2383.7,419)">
                        <path d="M1420.47,625.199C1409.63,625.199 1405.84,632.43 1405.83,639.84C1405.82,650.082 1405.89,675.51 1405.83,685.712C1405.8,690.561 1410.49,696.391 1415.23,696.391C1428.53,696.391 1471.15,696.331 1484.45,696.391C1489.48,696.414 1494.28,690.746 1494.28,685.712L1494.28,635.878C1494.28,630.844 1489.48,625.199 1484.45,625.199L1420.47,625.199ZM1411.84,658.882L1411.84,681.702C1411.84,686.647 1415.86,690.662 1420.8,690.662L1436.6,690.662L1436.6,658.882L1411.84,658.882ZM1487.84,668.932L1451.61,658.882L1441.33,658.882L1441.33,690.662L1478.88,690.662C1483.83,690.662 1487.84,686.647 1487.84,681.702L1487.84,668.932ZM1454.79,630.928L1454.79,654.483L1487.84,663.415L1487.84,639.888C1487.84,634.943 1483.83,630.928 1478.88,630.928L1454.79,630.928ZM1449.64,630.928L1420.8,630.928C1416.66,630.928 1411.84,635.751 1411.84,639.888C1411.84,644.025 1412.05,654.156 1412.05,654.156L1449.85,654.156L1449.64,630.928Z" style="fill:rgb(88,86,214);fill-rule:nonzero;"/>
                    </g>
                    <g id="Heavy-M" transform="matrix(1,0,0,1,2087.64,420)">
                        <path d="M1420.47,625.199C1409.63,625.199 1405.84,632.43 1405.83,639.84C1405.82,650.082 1405.89,675.51 1405.83,685.712C1405.8,690.561 1410.49,696.391 1415.23,696.391C1428.53,696.391 1471.15,696.331 1484.45,696.391C1489.48,696.414 1494.28,690.746 1494.28,685.712L1494.28,635.878C1494.28,630.844 1489.48,625.199 1484.45,625.199L1420.47,625.199ZM1411.84,658.882L1411.84,681.702C1411.84,686.647 1415.86,690.662 1420.8,690.662L1436.6,690.662L1436.6,658.882L1411.84,658.882ZM1487.84,668.932L1451.61,658.882L1441.33,658.882L1441.33,690.662L1478.88,690.662C1483.83,690.662 1487.84,686.647 1487.84,681.702L1487.84,668.932ZM1454.79,630.928L1454.79,654.483L1487.84,663.415L1487.84,639.888C1487.84,634.943 1483.83,630.928 1478.88,630.928L1454.79,630.928ZM1449.64,630.928L1420.8,630.928C1416.66,630.928 1411.84,635.751 1411.84,639.888C1411.84,644.025 1412.05,654.156 1412.05,654.156L1449.85,654.156L1449.64,630.928Z" style="fill:rgb(88,86,214);fill-rule:nonzero;"/>
                    </g>
                    <g id="Bold-M" transform="matrix(1,0,0,1,1791.67,422)">
                        <path d="M1420.47,625.199C1409.63,625.199 1405.84,632.43 1405.83,639.84C1405.82,650.082 1405.89,675.51 1405.83,685.712C1405.8,690.561 1410.49,696.391 1415.23,696.391C1428.53,696.391 1471.15,696.331 1484.45,696.391C1489.48,696.414 1494.28,690.746 1494.28,685.712L1494.28,635.878C1494.28,630.844 1489.48,625.199 1484.45,625.199L1420.47,625.199ZM1411.84,658.882L1411.84,681.702C1411.84,686.647 1415.86,690.662 1420.8,690.662L1436.6,690.662L1436.6,658.882L1411.84,658.882ZM1487.84,668.932L1451.61,658.882L1441.33,658.882L1441.33,690.662L1478.88,690.662C1483.83,690.662 1487.84,686.647 1487.84,681.702L1487.84,668.932ZM1454.79,630.928L1454.79,654.483L1487.84,663.415L1487.84,639.888C1487.84,634.943 1483.83,630.928 1478.88,630.928L1454.79,630.928ZM1449.64,630.928L1420.8,630.928C1416.66,630.928 1411.84,635.751 1411.84,639.888C1411.84,644.025 1412.05,654.156 1412.05,654.156L1449.85,654.156L1449.64,630.928Z" style="fill:rgb(88,86,214);fill-rule:nonzero;"/>
                    </g>
                    <g id="Semibold-M" transform="matrix(1,0,0,1,1495.47,423)">
                        <path d="M1420.47,625.199C1409.63,625.199 1405.84,632.43 1405.83,639.84C1405.82,650.082 1405.89,675.51 1405.83,685.712C1405.8,690.561 1410.49,696.391 1415.23,696.391C1428.53,696.391 1471.15,696.331 1484.45,696.391C1489.48,696.414 1494.28,690.746 1494.28,685.712L1494.28,635.878C1494.28,630.844 1489.48,625.199 1484.45,625.199L1420.47,625.199ZM1411.84,658.882L1411.84,681.702C1411.84,686.647 1415.86,690.662 1420.8,690.662L1436.6,690.662L1436.6,658.882L1411.84,658.882ZM1487.84,668.932L1451.61,658.882L1441.33,658.882L1441.33,690.662L1478.88,690.662C1483.83,690.662 1487.84,686.647 1487.84,681.702L1487.84,668.932ZM1454.79,630.928L1454.79,654.483L1487.84,663.415L1487.84,639.888C1487.84,634.943 1483.83,630.928 1478.88,630.928L1454.79,630.928ZM1449.64,630.928L1420.8,630.928C1416.66,630.928 1411.84,635.751 1411.84,639.888C1411.84,644.025 1412.05,654.156 1412.05,654.156L1449.85,654.156L1449.64,630.928Z" style="fill:rgb(88,86,214);fill-rule:nonzero;"/>
                    </g>
                    <g id="Medium-M" transform="matrix(1,0,0,1,1199.15,423)">
                        <path d="M1420.47,625.199C1409.63,625.199 1405.84,632.43 1405.83,639.84C1405.82,650.082 1405.89,675.51 1405.83,685.712C1405.8,690.561 1410.49,696.391 1415.23,696.391C1428.53,696.391 1471.15,696.331 1484.45,696.391C1489.48,696.414 1494.28,690.746 1494.28,685.712L1494.28,635.878C1494.28,630.844 1489.48,625.199 1484.45,625.199L1420.47,625.199ZM1411.84,658.882L1411.84,681.702C1411.84,686.647 1415.86,690.662 1420.8,690.662L1436.6,690.662L1436.6,658.882L1411.84,658.882ZM1487.84,668.932L1451.61,658.882L1441.33,658.882L1441.33,690.662L1478.88,690.662C1483.83,690.662 1487.84,686.647 1487.84,681.702L1487.84,668.932ZM1454.79,630.928L1454.79,654.483L1487.84,663.415L1487.84,639.888C1487.84,634.943 1483.83,630.928 1478.88,630.928L1454.79,630.928ZM1449.64,630.928L1420.8,630.928C1416.66,630.928 1411.84,635.751 1411.84,639.888C1411.84,644.025 1412.05,654.156 1412.05,654.156L1449.85,654.156L1449.64,630.928Z" style="fill:rgb(88,86,214);fill-rule:nonzero;"/>
                    </g>
                    <g id="Regular-M" transform="matrix(1,0,0,1,902.95,424)">
                        <path d="M1420.47,625.199C1409.63,625.199 1405.84,632.43 1405.83,639.84C1405.82,650.082 1405.89,675.51 1405.83,685.712C1405.8,690.561 1410.49,696.391 1415.23,696.391C1428.53,696.391 1471.15,696.331 1484.45,696.391C1489.48,696.414 1494.28,690.746 1494.28,685.712L1494.28,635.878C1494.28,630.844 1489.48,625.199 1484.45,625.199L1420.47,625.199ZM1411.84,658.882L1411.84,681.702C1411.84,686.647 1415.86,690.662 1420.8,690.662L1436.6,690.662L1436.6,658.882L1411.84,658.882ZM1487.84,668.932L1451.61,658.882L1441.33,658.882L1441.33,690.662L1478.88,690.662C1483.83,690.662 1487.84,686.647 1487.84,681.702L1487.84,668.932ZM1454.79,630.928L1454.79,654.483L1487.84,663.415L1487.84,639.888C1487.84,634.943 1483.83,630.928 1478.88,630.928L1454.79,630.928ZM1449.64,630.928L1420.8,630.928C1416.66,630.928 1411.84,635.751 1411.84,639.888C1411.84,644.025 1412.05,654.156 1412.05,654.156L1449.85,654.156L1449.64,630.928Z" style="fill:rgb(88,86,214);fill-rule:nonzero;"/>
                    </g>
                    <g id="Light-M" transform="matrix(1,0,0,1,606.97,425)">
                        <path d="M1420.47,625.199C1409.63,625.199 1405.84,632.43 1405.83,639.84C1405.82,650.082 1405.89,675.51 1405.83,685.712C1405.8,690.561 1410.49,696.391 1415.23,696.391C1428.53,696.391 1471.15,696.331 1484.45,696.391C1489.48,696.414 1494.28,690.746 1494.28,685.712L1494.28,635.878C1494.28,630.844 1489.48,625.199 1484.45,625.199L1420.47,625.199ZM1411.84,658.882L1411.84,681.702C1411.84,686.647 1415.86,690.662 1420.8,690.662L1436.6,690.662L1436.6,658.882L1411.84,658.882ZM1487.84,668.932L1451.61,658.882L1441.33,658.882L1441.33,690.662L1478.88,690.662C1483.83,690.662 1487.84,686.647 1487.84,681.702L1487.84,668.932ZM1454.79,630.928L1454.79,654.483L1487.84,663.415L1487.84,639.888C1487.84,634.943 1483.83,630.928 1478.88,630.928L1454.79,630.928ZM1449.64,630.928L1420.8,630.928C1416.66,630.928 1411.84,635.751 1411.84,639.888C1411.84,644.025 1412.05,654.156 1412.05,654.156L1449.85,654.156L1449.64,630.928Z" style="fill:rgb(88,86,214);fill-rule:nonzero;"/>
                    </g>
                    <g id="Thin-M" transform="matrix(1,0,0,1,311.236,426)">
                        <path d="M1420.47,625.199C1409.63,625.199 1405.84,632.43 1405.83,639.84C1405.82,650.082 1405.89,675.51 1405.83,685.712C1405.8,690.561 1410.49,696.391 1415.23,696.391C1428.53,696.391 1471.15,696.331 1484.45,696.391C1489.48,696.414 1494.28,690.746 1494.28,685.712L1494.28,635.878C1494.28,630.844 1489.48,625.199 1484.45,625.199L1420.47,625.199ZM1411.84,658.882L1411.84,681.702C1411.84,686.647 1415.86,690.662 1420.8,690.662L1436.6,690.662L1436.6,658.882L1411.84,658.882ZM1487.84,668.932L1451.61,658.882L1441.33,658.882L1441.33,690.662L1478.88,690.662C1483.83,690.662 1487.84,686.647 1487.84,681.702L1487.84,668.932ZM1454.79,630.928L1454.79,654.483L1487.84,663.415L1487.84,639.888C1487.84,634.943 1483.83,630.928 1478.88,630.928L1454.79,630.928ZM1449.64,630.928L1420.8,630.928C1416.66,630.928 1411.84,635.751 1411.84,639.888C1411.84,644.025 1412.05,654.156 1412.05,654.156L1449.85,654.156L1449.64,630.928Z" style="fill:rgb(88,86,214);fill-rule:nonzero;"/>
                    </g>
                    <g id="Ultralight-M" transform="matrix(1,0,0,1,15.013,427)">
                        <path d="M1420.47,625.199C1409.63,625.199 1405.84,632.43 1405.83,639.84C1405.82,650.082 1405.89,675.51 1405.83,685.712C1405.8,690.561 1410.49,696.391 1415.23,696.391C1428.53,696.391 1471.15,696.331 1484.45,696.391C1489.48,696.414 1494.28,690.746 1494.28,685.712L1494.28,635.878C1494.28,630.844 1489.48,625.199 1484.45,625.199L1420.47,625.199ZM1411.84,658.882L1411.84,681.702C1411.84,686.647 1415.86,690.662 1420.8,690.662L1436.6,690.662L1436.6,658.882L1411.84,658.882ZM1487.84,668.932L1451.61,658.882L1441.33,658.882L1441.33,690.662L1478.88,690.662C1483.83,690.662 1487.84,686.647 1487.84,681.702L1487.84,668.932ZM1454.79,630.928L1454.79,654.483L1487.84,663.415L1487.84,639.888C1487.84,634.943 1483.83,630.928 1478.88,630.928L1454.79,630.928ZM1449.64,630.928L1420.8,630.928C1416.66,630.928 1411.84,635.751 1411.84,639.888C1411.84,644.025 1412.05,654.156 1412.05,654.156L1449.85,654.156L1449.64,630.928Z" style="fill:rgb(88,86,214);fill-rule:nonzero;"/>
                    </g>
                    <g id="Black-S" transform="matrix(1,0,0,1,2395.83,0)">
                        <path d="M1420.47,625.199C1409.63,625.199 1405.84,632.43 1405.83,639.84C1405.82,650.082 1405.89,675.51 1405.83,685.712C1405.8,690.561 1410.49,696.391 1415.23,696.391C1428.53,696.391 1471.15,696.331 1484.45,696.391C1489.48,696.414 1494.28,690.746 1494.28,685.712L1494.28,635.878C1494.28,630.844 1489.48,625.199 1484.45,625.199L1420.47,625.199ZM1411.84,658.882L1411.84,681.702C1411.84,686.647 1415.86,690.662 1420.8,690.662L1436.6,690.662L1436.6,658.882L1411.84,658.882ZM1487.84,668.932L1451.61,658.882L1441.33,658.882L1441.33,690.662L1478.88,690.662C1483.83,690.662 1487.84,686.647 1487.84,681.702L1487.84,668.932ZM1454.79,630.928L1454.79,654.483L1487.84,663.415L1487.84,639.888C1487.84,634.943 1483.83,630.928 1478.88,630.928L1454.79,630.928ZM1449.64,630.928L1420.8,630.928C1416.66,630.928 1411.84,635.751 1411.84,639.888C1411.84,644.025 1412.05,654.156 1412.05,654.156L1449.85,654.156L1449.64,630.928Z" style="fill:rgb(88,86,214);fill-rule:nonzero;"/>
                    </g>
                    <g id="Heavy-S" transform="matrix(1,0,0,1,2099.61,0)">
                        <path d="M1420.47,625.199C1409.63,625.199 1405.84,632.43 1405.83,639.84C1405.82,650.082 1405.89,675.51 1405.83,685.712C1405.8,690.561 1410.49,696.391 1415.23,696.391C1428.53,696.391 1471.15,696.331 1484.45,696.391C1489.48,696.414 1494.28,690.746 1494.28,685.712L1494.28,635.878C1494.28,630.844 1489.48,625.199 1484.45,625.199L1420.47,625.199ZM1411.84,658.882L1411.84,681.702C1411.84,686.647 1415.86,690.662 1420.8,690.662L1436.6,690.662L1436.6,658.882L1411.84,658.882ZM1487.84,668.932L1451.61,658.882L1441.33,658.882L1441.33,690.662L1478.88,690.662C1483.83,690.662 1487.84,686.647 1487.84,681.702L1487.84,668.932ZM1454.79,630.928L1454.79,654.483L1487.84,663.415L1487.84,639.888C1487.84,634.943 1483.83,630.928 1478.88,630.928L1454.79,630.928ZM1449.64,630.928L1420.8,630.928C1416.66,630.928 1411.84,635.751 1411.84,639.888C1411.84,644.025 1412.05,654.156 1412.05,654.156L1449.85,654.156L1449.64,630.928Z" style="fill:rgb(88,86,214);fill-rule:nonzero;"/>
                    </g>
                    <g id="Bold-S" transform="matrix(1,0,0,1,1803.41,2)">
                        <path d="M1420.47,625.199C1409.63,625.199 1405.84,632.43 1405.83,639.84C1405.82,650.082 1405.89,675.51 1405.83,685.712C1405.8,690.561 1410.49,696.391 1415.23,696.391C1428.53,696.391 1471.15,696.331 1484.45,696.391C1489.48,696.414 1494.28,690.746 1494.28,685.712L1494.28,635.878C1494.28,630.844 1489.48,625.199 1484.45,625.199L1420.47,625.199ZM1411.84,658.882L1411.84,681.702C1411.84,686.647 1415.86,690.662 1420.8,690.662L1436.6,690.662L1436.6,658.882L1411.84,658.882ZM1487.84,668.932L1451.61,658.882L1441.33,658.882L1441.33,690.662L1478.88,690.662C1483.83,690.662 1487.84,686.647 1487.84,681.702L1487.84,668.932ZM1454.79,630.928L1454.79,654.483L1487.84,663.415L1487.84,639.888C1487.84,634.943 1483.83,630.928 1478.88,630.928L1454.79,630.928ZM1449.64,630.928L1420.8,630.928C1416.66,630.928 1411.84,635.751 1411.84,639.888C1411.84,644.025 1412.05,654.156 1412.05,654.156L1449.85,654.156L1449.64,630.928Z" style="fill:rgb(88,86,214);fill-rule:nonzero;"/>
                    </g>
                    <g id="Semibold-S" transform="matrix(1,0,0,1,1507.09,2)">
                        <path d="M1420.47,625.199C1409.63,625.199 1405.84,632.43 1405.83,639.84C1405.82,650.082 1405.89,675.51 1405.83,685.712C1405.8,690.561 1410.49,696.391 1415.23,696.391C1428.53,696.391 1471.15,696.331 1484.45,696.391C1489.48,696.414 1494.28,690.746 1494.28,685.712L1494.28,635.878C1494.28,630.844 1489.48,625.199 1484.45,625.199L1420.47,625.199ZM1411.84,658.882L1411.84,681.702C1411.84,686.647 1415.86,690.662 1420.8,690.662L1436.6,690.662L1436.6,658.882L1411.84,658.882ZM1487.84,668.932L1451.61,658.882L1441.33,658.882L1441.33,690.662L1478.88,690.662C1483.83,690.662 1487.84,686.647 1487.84,681.702L1487.84,668.932ZM1454.79,630.928L1454.79,654.483L1487.84,663.415L1487.84,639.888C1487.84,634.943 1483.83,630.928 1478.88,630.928L1454.79,630.928ZM1449.64,630.928L1420.8,630.928C1416.66,630.928 1411.84,635.751 1411.84,639.888C1411.84,644.025 1412.05,654.156 1412.05,654.156L1449.85,654.156L1449.64,630.928Z" style="fill:rgb(88,86,214);fill-rule:nonzero;"/>
                    </g>
                    <g id="Medium-S" transform="matrix(1,0,0,1,1210.65,3)">
                        <path d="M1420.47,625.199C1409.63,625.199 1405.84,632.43 1405.83,639.84C1405.82,650.082 1405.89,675.51 1405.83,685.712C1405.8,690.561 1410.49,696.391 1415.23,696.391C1428.53,696.391 1471.15,696.331 1484.45,696.391C1489.48,696.414 1494.28,690.746 1494.28,685.712L1494.28,635.878C1494.28,630.844 1489.48,625.199 1484.45,625.199L1420.47,625.199ZM1411.84,658.882L1411.84,681.702C1411.84,686.647 1415.86,690.662 1420.8,690.662L1436.6,690.662L1436.6,658.882L1411.84,658.882ZM1487.84,668.932L1451.61,658.882L1441.33,658.882L1441.33,690.662L1478.88,690.662C1483.83,690.662 1487.84,686.647 1487.84,681.702L1487.84,668.932ZM1454.79,630.928L1454.79,654.483L1487.84,663.415L1487.84,639.888C1487.84,634.943 1483.83,630.928 1478.88,630.928L1454.79,630.928ZM1449.64,630.928L1420.8,630.928C1416.66,630.928 1411.84,635.751 1411.84,639.888C1411.84,644.025 1412.05,654.156 1412.05,654.156L1449.85,654.156L1449.64,630.928Z" style="fill:rgb(88,86,214);fill-rule:nonzero;"/>
                    </g>
                    <g id="Regular-S" transform="matrix(1,0,0,1,914.3,4)">
                        <path d="M1420.47,625.199C1409.63,625.199 1405.84,632.43 1405.83,639.84C1405.82,650.082 1405.89,675.51 1405.83,685.712C1405.8,690.561 1410.49,696.391 1415.23,696.391C1428.53,696.391 1471.15,696.331 1484.45,696.391C1489.48,696.414 1494.28,690.746 1494.28,685.712L1494.28,635.878C1494.28,630.844 1489.48,625.199 1484.45,625.199L1420.47,625.199ZM1411.84,658.882L1411.84,681.702C1411.84,686.647 1415.86,690.662 1420.8,690.662L1436.6,690.662L1436.6,658.882L1411.84,658.882ZM1487.84,668.932L1451.61,658.882L1441.33,658.882L1441.33,690.662L1478.88,690.662C1483.83,690.662 1487.84,686.647 1487.84,681.702L1487.84,668.932ZM1454.79,630.928L1454.79,654.483L1487.84,663.415L1487.84,639.888C1487.84,634.943 1483.83,630.928 1478.88,630.928L1454.79,630.928ZM1449.64,630.928L1420.8,630.928C1416.66,630.928 1411.84,635.751 1411.84,639.888C1411.84,644.025 1412.05,654.156 1412.05,654.156L1449.85,654.156L1449.64,630.928Z" style="fill:rgb(88,86,214);fill-rule:nonzero;"/>
                    </g>
                    <g id="Light-S" transform="matrix(1,0,0,1,618.23,4)">
                        <path d="M1420.47,625.199C1409.63,625.199 1405.84,632.43 1405.83,639.84C1405.82,650.082 1405.89,675.51 1405.83,685.712C1405.8,690.561 1410.49,696.391 1415.23,696.391C1428.53,696.391 1471.15,696.331 1484.45,696.391C1489.48,696.414 1494.28,690.746 1494.28,685.712L1494.28,635.878C1494.28,630.844 1489.48,625.199 1484.45,625.199L1420.47,625.199ZM1411.84,658.882L1411.84,681.702C1411.84,686.647 1415.86,690.662 1420.8,690.662L1436.6,690.662L1436.6,658.882L1411.84,658.882ZM1487.84,668.932L1451.61,658.882L1441.33,658.882L1441.33,690.662L1478.88,690.662C1483.83,690.662 1487.84,686.647 1487.84,681.702L1487.84,668.932ZM1454.79,630.928L1454.79,654.483L1487.84,663.415L1487.84,639.888C1487.84,634.943 1483.83,630.928 1478.88,630.928L1454.79,630.928ZM1449.64,630.928L1420.8,630.928C1416.66,630.928 1411.84,635.751 1411.84,639.888C1411.84,644.025 1412.05,654.156 1412.05,654.156L1449.85,654.156L1449.64,630.928Z" style="fill:rgb(88,86,214);fill-rule:nonzero;"/>
                    </g>
                    <g id="Thin-S" transform="matrix(1,0,0,1,322.371,5)">
                        <path d="M1420.47,625.199C1409.63,625.199 1405.84,632.43 1405.83,639.84C1405.82,650.082 1405.89,675.51 1405.83,685.712C1405.8,690.561 1410.49,696.391 1415.23,696.391C1428.53,696.391 1471.15,696.331 1484.45,696.391C1489.48,696.414 1494.28,690.746 1494.28,685.712L1494.28,635.878C1494.28,630.844 1489.48,625.199 1484.45,625.199L1420.47,625.199ZM1411.84,658.882L1411.84,681.702C1411.84,686.647 1415.86,690.662 1420.8,690.662L1436.6,690.662L1436.6,658.882L1411.84,658.882ZM1487.84,668.932L1451.61,658.882L1441.33,658.882L1441.33,690.662L1478.88,690.662C1483.83,690.662 1487.84,686.647 1487.84,681.702L1487.84,668.932ZM1454.79,630.928L1454.79,654.483L1487.84,663.415L1487.84,639.888C1487.84,634.943 1483.83,630.928 1478.88,630.928L1454.79,630.928ZM1449.64,630.928L1420.8,630.928C1416.66,630.928 1411.84,635.751 1411.84,639.888C1411.84,644.025 1412.05,654.156 1412.05,654.156L1449.85,654.156L1449.64,630.928Z" style="fill:rgb(88,86,214);fill-rule:nonzero;"/>
                    </g>
                    <g id="Ultralight-S" transform="matrix(1,0,0,1,26.1,6)">
                        <path d="M1420.47,625.199C1409.63,625.199 1405.84,632.43 1405.83,639.84C1405.82,650.082 1405.89,675.51 1405.83,685.712C1405.8,690.561 1410.49,696.391 1415.23,696.391C1428.53,696.391 1471.15,696.331 1484.45,696.391C1489.48,696.414 1494.28,690.746 1494.28,685.712L1494.28,635.878C1494.28,630.844 1489.48,625.199 1484.45,625.199L1420.47,625.199ZM1411.84,658.882L1411.84,681.702C1411.84,686.647 1415.86,690.662 1420.8,690.662L1436.6,690.662L1436.6,658.882L1411.84,658.882ZM1487.84,668.932L1451.61,658.882L1441.33,658.882L1441.33,690.662L1478.88,690.662C1483.83,690.662 1487.84,686.647 1487.84,681.702L1487.84,668.932ZM1454.79,630.928L1454.79,654.483C1465.56,657.391 1470.73,658.719 1487.84,663.415L1487.84,639.888C1487.84,634.943 1483.83,630.928 1478.88,630.928L1454.79,630.928ZM1449.64,630.928L1420.8,630.928C1416.66,630.928 1411.84,635.751 1411.84,639.888C1411.84,644.025 1412.05,654.156 1412.05,654.156L1449.85,654.156L1449.64,630.928Z" style="fill:rgb(88,86,214);fill-rule:nonzero;"/>
                    </g>
                </g>
            </g>
        </g>
    </g>
</svg>
